<svg xmlns="http://www.w3.org/2000/svg" width="293.1" height="80" viewBox="0 0 293.1 80"><title>fleet-leasing</title><ellipse opacity=".1" fill="#656684" cx="146" cy="70.8" rx="105" ry="2.1"></ellipse><path fill="#EF6352" d="M106.6 11.4h-4V8h-1.2v3.4h-4V41h4v29.5h1.2V41.1h4V11.4zM87 8h-1.2v3.4h-4V41h4v29.5H87V41.1h4V11.5h-4V8zm99.7 5.3h58.9v1.9h-58.9v-1.9z"></path><path fill="#C3C3CF" d="M158.6 59.9h-.3l-1.6-6.3-.1-.5c-.1-.5-.6-.8-1.1-.9H142c-.5 0-1 .4-1.1.9l-.1.5-1.6 6.3h-.3c-.7 0-1.3.6-1.4 1.3v5.4c0 .7.6 1.3 1.4 1.3h.9v2.7h2.7V68h13.1v2.7h2.7V68h.4c.7 0 1.4-.6 1.4-1.3v-5.4c-.1-.8-.7-1.4-1.5-1.4z"></path><ellipse fill="#C3C3CF" cx="159.8" cy="58.6" rx="1.1" ry=".9"></ellipse><ellipse fill="#C3C3CF" cx="137.7" cy="58.6" rx="1.1" ry=".9"></ellipse><path fill="#F1796A" d="M141.4 15.3h108.1v13.6H141.4V15.3z"></path><path fill="#EF6352" d="M147.7 27h1.9v43.8h-1.9V27z"></path><path fill="#F28275" d="M141.4 15.3h108.1v6.8H141.4v-6.8z"></path><path fill="#fff" d="M202.5 21.7c0 1.1-.5 1.9-1.8 1.9-.9.1-1.7-.5-1.8-1.4v-3h.8v2.5c0 .6.1 1.1 1 1.1s1-.5 1-1.1v-2.5h.8v2.5zm3.7 1.9c-.9.1-1.7-.5-1.9-1.3l.8-.1c.1.5.6.7 1.1.7s1-.2 1-.6c0-.9-2.7-.3-2.7-1.9 0-.8.8-1.2 1.6-1.2.7-.1 1.4.3 1.8 1l-.7.3c-.2-.4-.6-.6-1.1-.5-.3 0-.8.1-.8.5 0 .8 2.7.2 2.7 1.9 0 .7-.9 1.2-1.8 1.2zm7 0H210v-4.4h3.2v.8h-2.4v1h2.1v.7h-2.1v1.1h2.4v.8zm3.4 0h-1.3v-4.4h1.3c1.9 0 2.2.6 2.2 2.2.1 1.6-.3 2.2-2.2 2.2zm1.3-3.3c-.2-.3-.5-.3-1.1-.3h-.7v2.8h.7c.6 0 .9-.1 1.1-.4.1-.3.2-.7.1-1.1.1-.3.1-.7-.1-1zm9.9 2.5c-.4.5-1 .8-1.7.8-1.1 0-2-.9-2-2v-.3c-.1-1.1.6-2.1 1.7-2.2h.3c.6 0 1.2.3 1.6.7l-.6.5c-.3-.3-.7-.5-1.1-.5-.9 0-1.2.8-1.2 1.5s.3 1.5 1.2 1.5c.4 0 .8-.2 1.1-.5l.7.5zm5.9.8h-.9l-.5-1.2h-1.8l-.5 1.2h-.9l1.9-4.4h.7l2 4.4zm-1.6-1.9c0 .1-.6-1.5-.6-1.5l-.6 1.5h1.2zm5.7 0c.1.1.2.2.2.3l1.1 1.6h-1l-1-1.5c-.1-.2-.3-.4-.6-.3h-.4v1.8h-.8v-4.4h1.7c.9 0 1.6.4 1.6 1.3.2.5-.2 1-.8 1.2zm-.6-1.8h-.9V21h.9c.4 0 .8-.1.8-.6s-.3-.5-.8-.5zm5.4 3.7c-.9.1-1.7-.5-1.9-1.3l.8-.1c.1.5.6.7 1.1.7s1-.2 1-.6c0-.9-2.7-.3-2.7-1.9 0-.8.8-1.2 1.6-1.2.7-.1 1.4.3 1.8 1l-.7.3c-.2-.4-.6-.6-1.1-.5-.3 0-.8.1-.8.5 0 .8 2.7.2 2.7 1.9 0 .7-.9 1.2-1.8 1.2z"></path><path fill="#F38A7D" d="M189.8 59.9h-.3l-1.6-6.3-.1-.5c-.1-.5-.6-.8-1.1-.9h-13.5c-.5 0-1 .4-1.1.9l-.1.5-1.6 6.3h-.3c-.7 0-1.3.6-1.4 1.3v5.4c0 .7.6 1.3 1.4 1.3h.9v2.7h2.7V68h13.1v2.7h2.7V68h.4c.7 0 1.3-.6 1.4-1.3v-5.4c-.2-.8-.8-1.4-1.5-1.4z"></path><ellipse fill="#F38A7D" cx="190.9" cy="58.6" rx="1.1" ry=".9"></ellipse><ellipse fill="#F38A7D" cx="168.8" cy="58.6" rx="1.1" ry=".9"></ellipse><path fill="#C3C3CF" d="M127.5 59.9h-.3l-1.6-6.3-.1-.5c-.1-.5-.6-.8-1.1-.9h-13.5c-.5 0-1 .4-1.1.9l-.1.5-1.6 6.3h-.3c-.7 0-1.3.6-1.3 1.3v5.4c0 .7.6 1.3 1.3 1.3h.9v2.7h2.7V68h13.1v2.7h2.7V68h.4c.7 0 1.3-.6 1.3-1.3v-5.4c-.1-.7-.7-1.4-1.4-1.4z"></path><ellipse fill="#C3C3CF" cx="128.6" cy="58.6" rx="1.1" ry=".9"></ellipse><ellipse fill="#C3C3CF" cx="106.5" cy="58.6" rx="1.1" ry=".9"></ellipse><path fill="#F38A7D" d="M158.6 59.9h-.3l-1.6-6.3-.1-.5c-.1-.5-.6-.8-1.1-.9H142c-.5 0-1 .4-1.1.9l-.1.5-1.6 6.3h-.3c-.7 0-1.3.6-1.4 1.3v5.4c0 .7.6 1.3 1.4 1.3h.9v2.7h2.7V68h13.1v2.7h2.7V68h.4c.7 0 1.4-.6 1.4-1.3v-5.4c-.1-.8-.7-1.4-1.5-1.4z"></path><ellipse fill="#F38A7D" cx="159.8" cy="58.6" rx="1.1" ry=".9"></ellipse><ellipse fill="#F38A7D" cx="137.7" cy="58.6" rx="1.1" ry=".9"></ellipse><path fill="#C3C3CF" d="M96.3 59.9H96l-1.6-6.3-.1-.5c-.1-.5-.6-.8-1.1-.9H79.6c-.5 0-1 .4-1.1.9l-.1.5-1.6 6.3h-.3c-.7 0-1.3.6-1.3 1.3v5.4c0 .7.6 1.3 1.3 1.3h.9v2.7h2.7V68h13.1v2.7h2.7V68h.5c.7 0 1.3-.6 1.3-1.3v-5.4c0-.8-.6-1.4-1.4-1.4z"></path><ellipse fill="#C3C3CF" cx="97.4" cy="58.6" rx="1.1" ry=".9"></ellipse><ellipse fill="#C3C3CF" cx="75.4" cy="58.6" rx="1.1" ry=".9"></ellipse><path fill="#F38A7D" d="M127.5 59.9h-.3l-1.6-6.3-.1-.5c-.1-.5-.6-.8-1.1-.9h-13.5c-.5 0-1 .4-1.1.9l-.1.5-1.6 6.3h-.3c-.7 0-1.3.6-1.3 1.3v5.4c0 .7.6 1.3 1.3 1.3h.9v2.7h2.7V68h13.1v2.7h2.7V68h.4c.7 0 1.3-.6 1.3-1.3v-5.4c-.1-.7-.7-1.4-1.4-1.4z"></path><ellipse fill="#F38A7D" cx="128.6" cy="58.6" rx="1.1" ry=".9"></ellipse><ellipse fill="#F38A7D" cx="106.5" cy="58.6" rx="1.1" ry=".9"></ellipse><path fill="#F38A7D" d="M65.2 59.9h-.3l-1.6-6.3-.1-.5c-.1-.5-.6-.8-1.1-.9H48.5c-.5 0-1 .4-1.1.9l-.1.5-1.6 6.3h-.3c-.7 0-1.3.6-1.3 1.4v5.4c0 .7.6 1.3 1.3 1.3h.9v2.7H49V68h13v2.7h2.7V68h.4c.7 0 1.3-.6 1.4-1.3v-5.4c0-.8-.6-1.4-1.3-1.4z"></path><ellipse fill="#F38A7D" cx="66.3" cy="58.6" rx="1.1" ry=".9"></ellipse><ellipse fill="#F38A7D" cx="44.2" cy="58.6" rx="1.1" ry=".9"></ellipse><path fill="#F38A7D" d="M96.3 59.9H96l-1.6-6.3-.1-.5c-.1-.5-.6-.8-1.1-.9H79.6c-.5 0-1 .4-1.1.9l-.1.5-1.6 6.3h-.3c-.7 0-1.3.6-1.3 1.3v5.4c0 .7.6 1.3 1.3 1.3h.9v2.7h2.7V68h13.1v2.7h2.7V68h.5c.7 0 1.3-.6 1.3-1.3v-5.4c0-.8-.6-1.4-1.4-1.4z"></path><ellipse fill="#F38A7D" cx="97.4" cy="58.6" rx="1.1" ry=".9"></ellipse><ellipse fill="#F38A7D" cx="75.4" cy="58.6" rx="1.1" ry=".9"></ellipse><path fill="#EF6352" d="M141.4 27h108.1v2H141.4v-2z"></path><path fill="#EBEBEF" d="M245.1 45.5V28.9h-58.4v41.9h55V45.5h3.4z"></path><path fill="#E0E0E6" d="M227.6 45.5h14.1v25.3h-14.1V45.5z"></path><path fill="#D8D9E0" d="M227.6 45.5h14.1v2.4h-14.1v-2.4z"></path><path fill="#E5E5EA" d="M191.1 66.7v-5.4c0-.7-.6-1.3-1.4-1.3h-.3l-1.6-6.3-.1-.5c-.1-.2-.2-.4-.4-.6v18.2h2V68h.4c.8 0 1.4-.6 1.4-1.3z"></path><ellipse fill="#E5E5EA" cx="190.9" cy="58.6" rx="1.1" ry=".9"></ellipse><path fill="#E5E5EA" d="M220.9 59.9h-.3l-1.6-6.3-.1-.5c-.1-.5-.6-.8-1.1-.9h-13.5c-.5 0-1 .4-1.1.9l-.1.5-1.6 6.3h-.3c-.7 0-1.3.6-1.4 1.3v5.4c0 .7.6 1.3 1.4 1.3h.9v2.7h2.7V68h13.1v2.7h2.7V68h.4c.7 0 1.3-.6 1.4-1.3v-5.4c-.1-.8-.7-1.4-1.5-1.4z"></path><ellipse fill="#E5E5EA" cx="222.1" cy="58.6" rx="1.1" ry=".9"></ellipse><ellipse fill="#E5E5EA" cx="200" cy="58.6" rx="1.1" ry=".9"></ellipse><path fill="#EF6352" d="M186.7 27h1.9v43.8h-1.9V27z"></path></svg>