<svg xmlns="http://www.w3.org/2000/svg" width="293.1" height="80" viewBox="0 0 293.1 80"><title>fleet-leasing</title><ellipse opacity=".1" fill="#656684" cx="146.6" cy="76.7" rx="146.6" ry="3.3"></ellipse><path fill="#C574A1" d="M49.8 29.7h204.8v2.1H49.8v-2.1z"></path><path fill="#F8EEF3" d="M101 49.5V31.8H49.7v44.9H101V49.5z"></path><path fill="#F4E5ED" d="M101 31.8H49.7v44.9L101 31.8z"></path><path fill="#F8EEF3" d="M152.2 49.5V31.8h-51.3v44.9h51.3V49.5z"></path><path fill="#F4E5ED" d="M152.2 31.8h-51.3v44.9l51.3-44.9z"></path><path fill="#F8EEF3" d="M203.4 49.5V31.8h-51.3v44.9h51.3V49.5z"></path><path fill="#F4E5ED" d="M203.4 31.8h-51.3v44.9l51.3-44.9z"></path><path fill="#F8EEF3" d="M254.6 49.5V31.8h-51.3v44.9h51.3V49.5z"></path><path fill="#F4E5ED" d="M254.6 31.8h-51.3v44.9l51.3-44.9z"></path><path fill="#C574A1" d="M203 29.7h.5v47h-.5v-47zm-51.2 0h.5v47h-.5v-47zm-51.1 0h.5v47h-.5v-47z"></path><path fill="#E2B9D0" d="M28.2 65.9h-.3l-1.6-6.3-.1-.5c-.1-.5-.6-.8-1.1-.9H11.5c-.5 0-1 .4-1.1.9l-.1.5-1.6 6.3h-.4c-.7 0-1.3.6-1.3 1.3v5.4c0 .8.6 1.4 1.3 1.4h.9v2.7h2.7V74H25v2.7h2.7V74h.5c.7 0 1.3-.6 1.4-1.3v-5.4c-.1-.8-.7-1.4-1.4-1.4z"></path><ellipse fill="#E2B9D0" cx="29.3" cy="64.6" rx="1.1" ry=".9"></ellipse><ellipse fill="#E2B9D0" cx="7.2" cy="64.6" rx="1.1" ry=".9"></ellipse><path fill="#E2B9D0" d="M59.7 65.9h-.3l-1.6-6.3-.1-.5c-.1-.5-.6-.8-1.1-.9H43.1c-.5 0-1 .4-1.1.9l-.1.5-1.6 6.3H40c-.7 0-1.3.6-1.3 1.3v5.4c0 .7.6 1.3 1.3 1.3h.9v2.7h2.7V74h13.1v2.7h2.7V74h.5c.7 0 1.3-.6 1.3-1.3v-5.4c-.1-.8-.7-1.4-1.5-1.4z"></path><ellipse fill="#E2B9D0" cx="60.9" cy="64.6" rx="1.1" ry=".9"></ellipse><ellipse fill="#E2B9D0" cx="38.8" cy="64.6" rx="1.1" ry=".9"></ellipse><path fill="#E2B9D0" d="M91.3 65.9H91l-1.6-6.3-.1-.5c-.1-.5-.6-.8-1.1-.9H74.6c-.5 0-1 .4-1.1.9l-.1.5-1.6 6.3h-.3c-.7 0-1.3.6-1.3 1.3v5.4c0 .7.6 1.3 1.4 1.3h.9v2.7h2.7V74h13.1v2.7H91V74h.4c.7 0 1.3-.6 1.3-1.3v-5.4c-.1-.8-.7-1.4-1.4-1.4z"></path><ellipse fill="#E2B9D0" cx="92.4" cy="64.6" rx="1.1" ry=".9"></ellipse><ellipse fill="#E2B9D0" cx="70.3" cy="64.6" rx="1.1" ry=".9"></ellipse><path fill="#E2B9D0" d="M122.9 65.9h-.3l-1.5-6.3-.1-.5c-.1-.5-.6-.8-1.1-.9h-13.6c-.5 0-1 .4-1.1.9l-.1.5-1.6 6.3h-.5c-.7 0-1.3.6-1.3 1.3v5.4c0 .7.6 1.3 1.3 1.3h.9v2.7h2.7V74h13.1v2.7h2.7V74h.4c.7 0 1.3-.6 1.3-1.3v-5.4c.1-.8-.5-1.4-1.2-1.4z"></path><ellipse fill="#E2B9D0" cx="124" cy="64.6" rx="1.1" ry=".9"></ellipse><ellipse fill="#E2B9D0" cx="101.9" cy="64.6" rx="1.1" ry=".9"></ellipse><path fill="#E2B9D0" d="M154.5 65.9h-.3l-1.6-6.3-.1-.5c-.1-.5-.6-.8-1.1-.9h-13.5c-.5 0-1 .4-1.1.9l-.1.5-1.5 6.3h-.3c-.7 0-1.3.6-1.4 1.3v5.4c0 .7.6 1.3 1.3 1.3h.9v2.7h2.7V74h13.1v2.7h2.7V74h.4c.7 0 1.3-.6 1.4-1.3v-5.4c-.2-.8-.8-1.4-1.5-1.4z"></path><ellipse fill="#E2B9D0" cx="155.6" cy="64.6" rx="1.1" ry=".9"></ellipse><ellipse fill="#E2B9D0" cx="133.5" cy="64.6" rx="1.1" ry=".9"></ellipse><path fill="#E2B9D0" d="M186 65.9h-.3l-1.6-6.3-.1-.5c-.1-.5-.6-.8-1.1-.9h-13.5c-.5 0-1 .4-1.1.9l-.1.5-1.6 6.3h-.3c-.7 0-1.3.6-1.4 1.3v5.4c0 .7.6 1.3 1.4 1.3h.9v2.7h2.7V74H183v2.7h2.7V74h.4c.7 0 1.3-.6 1.4-1.3v-5.4c-.2-.8-.8-1.4-1.5-1.4z"></path><ellipse fill="#E2B9D0" cx="187.2" cy="64.6" rx="1.1" ry=".9"></ellipse><ellipse fill="#E2B9D0" cx="165.1" cy="64.6" rx="1.1" ry=".9"></ellipse><path fill="#E2B9D0" d="M217.6 65.9h-.3l-1.6-6.3-.1-.5c-.1-.5-.6-.8-1.1-.9H201c-.5 0-1 .4-1.1.9l-.1.5-1.6 6.3h-.3c-.7 0-1.3.6-1.4 1.3v5.4c0 .7.6 1.3 1.4 1.3h.9v2.7h2.7V74h13.1v2.7h2.7V74h.4c.8 0 1.4-.6 1.4-1.3v-5.4c-.1-.8-.7-1.4-1.5-1.4z"></path><ellipse fill="#E2B9D0" cx="218.7" cy="64.6" rx="1.1" ry=".9"></ellipse><ellipse fill="#E2B9D0" cx="196.6" cy="64.6" rx="1.1" ry=".9"></ellipse><path fill="#E2B9D0" d="M249.2 65.9h-.3l-1.6-6.3-.1-.5c-.1-.5-.6-.8-1.1-.9h-13.5c-.5 0-1 .4-1.1.9l-.1.5-1.6 6.3h-.3c-.7 0-1.3.6-1.4 1.3v5.4c0 .7.6 1.3 1.4 1.3h.9v2.7h2.8V74h13v2.7h2.7V74h.4c.7 0 1.3-.6 1.4-1.3v-5.4c-.2-.8-.8-1.4-1.5-1.4z"></path><ellipse fill="#E2B9D0" cx="250.3" cy="64.6" rx="1.1" ry=".9"></ellipse><ellipse fill="#E2B9D0" cx="228.2" cy="64.6" rx="1.1" ry=".9"></ellipse><path fill="#E2B9D0" d="M280.8 65.9h-.3l-1.6-6.3-.1-.5c-.1-.5-.6-.8-1.1-.9h-13.5c-.5 0-1 .4-1.1.9l-.1.5-1.6 6.3h-.3c-.7 0-1.3.6-1.4 1.3v5.4c0 .7.6 1.3 1.4 1.3h.9v2.7h2.7V74h13.1v2.7h2.7V74h.5c.7 0 1.3-.6 1.4-1.3v-5.4c-.3-.8-.9-1.4-1.6-1.4z"></path><ellipse fill="#E2B9D0" cx="281.9" cy="64.6" rx="1.1" ry=".9"></ellipse><ellipse fill="#E2B9D0" cx="259.8" cy="64.6" rx="1.1" ry=".9"></ellipse><path fill="#D497B8" d="M247.7 0l-191 11.1c-3.8.3-6.8 3.4-6.9 7.3v11.2h204.8V6.5c0-3.6-2.8-6.5-6.4-6.5h-.5z"></path><path fill="#fff" d="M144.1 18.2h2.2c.5 0 1 .1 1.4.4.3.3.5.7.5 1.1 0 .3-.1.6-.3.9-.2.3-.5.4-.8.5.3 0 .6.2.9.5.2.2.3.5.3.9 0 .7-.4 1.3-1 1.5-.3.1-.7.2-1 .1h-2.2v-5.9zm.7 2.6h1.4c.3 0 .6-.1.9-.3.4-.4.4-1 0-1.4-.2-.2-.6-.3-.9-.3h-1.4v2zm1.5 2.6c.4 0 .7-.1 1-.3.2-.2.3-.4.3-.7 0-.3-.1-.5-.3-.7-.3-.2-.6-.3-.9-.3H145v2h1.3zm6.6-.2c-.2.6-.8 1-1.5 1-.4 0-.9-.1-1.2-.4-.3-.3-.5-.8-.5-1.3v-2.8h.7v2.8c0 .7.3 1.1 1 1.1.4 0 .8-.2 1-.5.3-.3.4-.8.4-1.2v-2.2h.7V24h-.7l.1-.8zm2.8-3.4c.4-.2.8-.4 1.3-.3.4 0 .9.1 1.2.3.3.2.5.5.5.8h-.7c-.1-.4-.4-.6-1-.6-.2 0-.5.1-.7.2-.1.1-.2.3-.2.4 0 .2.1.3.2.4l.6.3.9.3c.3.1.6.2.9.5.2.2.3.5.3.8 0 .3-.2.7-.5.9-.4.3-.9.4-1.4.4-.5 0-1-.1-1.4-.4-.3-.2-.5-.6-.5-1h.7c0 .3.1.5.3.6.5.3 1.1.3 1.6 0 .2-.1.3-.3.3-.5s-.1-.3-.2-.4l-.6-.3-.9-.3c-.8-.2-1.2-.6-1.2-1.2.1-.4.2-.7.5-.9zm5.1-1.2c-.1 0-.3 0-.4-.1-.2-.2-.2-.5 0-.7.1-.1.2-.1.4-.1.1 0 .3 0 .4.1.2.2.2.5 0 .7-.2 0-.3.1-.4.1zm-.4 1h.7V24h-.7v-4.4zm3.4.9c.4-.8 1.4-1.2 2.2-.8.2.1.4.2.5.4.3.4.5.9.4 1.4V24h-.7v-2.6c0-.4-.1-.7-.3-1-.2-.2-.5-.3-.9-.3s-.7.2-.9.5c-.2.4-.4.8-.4 1.3V24h-.7v-4.4h.6l.2.9zm6.4 3c.5 0 .9-.3 1-.8h.8c-.1.4-.3.8-.6 1-.4.3-.8.4-1.2.4-.6 0-1.1-.2-1.4-.6-.4-.5-.6-1.1-.6-1.7 0-.6.2-1.2.6-1.7.4-.4.9-.7 1.5-.6.6 0 1.1.2 1.4.7.3.5.5 1.2.4 1.8h-3c0 .4.1.8.3 1.1.1.3.5.5.8.4zm.6-3.3c-.5-.2-1-.1-1.4.3-.2.3-.4.6-.4 1h2.4c0-.5-.2-1-.6-1.3zm2.9-.4c.4-.2.8-.3 1.3-.3.4 0 .9.1 1.2.3.3.2.5.5.5.8h-.7c-.1-.4-.4-.6-1-.6-.2 0-.5.1-.7.2-.1.1-.2.3-.2.4 0 .2.1.3.2.4l.6.3.9.3c.3.1.6.2.9.5.2.2.3.5.3.8 0 .3-.2.7-.5.9-.4.3-.9.4-1.4.4-.5 0-1-.1-1.4-.4-.3-.2-.5-.6-.5-1h.7c0 .3.1.5.3.6.5.3 1.1.3 1.6 0 .2-.1.3-.3.3-.5s-.1-.3-.2-.4l-.6-.3-.9-.3c-.8-.2-1.2-.6-1.2-1.2 0-.4.2-.7.5-.9zm4.8 0c.4-.2.8-.3 1.3-.3.4 0 .9.1 1.2.3.3.2.5.5.5.8h-.7c-.1-.4-.4-.6-1-.6-.2 0-.5.1-.7.2-.1.1-.2.3-.2.4 0 .2.1.3.2.4l.6.3.9.3c.3.1.6.2.9.5.2.2.3.5.3.8 0 .3-.2.7-.5.9-.4.3-.9.4-1.4.4-.5 0-1-.1-1.4-.4-.3-.2-.5-.6-.5-1h.7c0 .3.1.5.3.6.5.3 1.1.3 1.6 0 .2-.1.3-.3.3-.5s-.1-.3-.2-.4l-.6-.3-.9-.3c-.8-.2-1.2-.6-1.2-1.2.1-.4.2-.7.5-.9zm7.9 3.3h2.5v1h-3.6V18h1.1v5.1zm7-2.3c.1.2.1.5.1.7v.6h-2.9c0 .3.1.6.3.9.2.2.5.4.8.3.4 0 .7-.2.8-.6h1.1c-.1.4-.3.8-.6 1.1-.4.3-.8.4-1.3.4-.6 0-1.1-.2-1.5-.6-.4-.5-.6-1.1-.6-1.7 0-.6.2-1.3.6-1.7.4-.4.9-.6 1.5-.6s1.1.2 1.4.7c.1 0 .2.2.3.5zm-1.8-.5c-.3 0-.5.1-.7.3-.2.2-.3.5-.3.8h1.9c.1-.4-.1-.8-.5-1-.2-.1-.3-.1-.4-.1zm4.6 1.1c.4 0 .8.1 1.2.2v-.4c0-.2 0-.5-.2-.7-.2-.2-.4-.3-.6-.2-.2 0-.5 0-.7.2-.2.1-.2.3-.2.5h-1.2c0-.4.2-.9.5-1.1.5-.3 1-.4 1.5-.3.8-.1 1.5.3 1.8 1 .1.3.1.5.1.8V24h-1l-.1-.6c-.3.5-.8.8-1.3.7-.5 0-1-.1-1.4-.4-.3-.3-.4-.6-.4-1s.2-.8.5-1c.6-.2 1.1-.3 1.5-.3zm1.3.9c-.3-.1-.7-.1-1-.1-.6 0-.9.2-.9.6 0 .2.1.3.2.4.2.1.4.2.6.2.3 0 .5-.1.7-.3.3-.3.4-.5.4-.8zm3.3.4c0 .4.3.6.9.6.2 0 .4 0 .6-.1.1-.1.2-.2.2-.4 0-.1 0-.2-.1-.3-.1-.1-.3-.2-.4-.2l-1-.4c-.7-.3-1.1-.7-1.1-1.2 0-.4.2-.7.5-.9.4-.3.9-.4 1.4-.4.5 0 .9.1 1.3.4.3.2.5.6.5 1h-1c0-.1-.1-.3-.2-.4-.2-.1-.4-.1-.6-.1-.2 0-.4 0-.6.1-.1.1-.2.2-.2.3 0 .2.2.4.6.5l1.1.4c.3.1.6.2.8.5.2.2.3.4.3.7 0 .4-.2.8-.5 1-.4.3-.9.5-1.4.4-.5 0-1-.1-1.4-.4-.4-.3-.6-.7-.6-1.1h.9zm4.2-4.6c0-.2.1-.3.2-.5.3-.2.7-.2 1 0 .2.3.2.7 0 .9-.3.2-.7.2-1 0-.1-.1-.2-.2-.2-.4zm.1 1.4h1.1V24h-1.1v-4.5zm4 .8c.4-.8 1.4-1.1 2.2-.7.2.1.4.2.5.4.3.4.4.9.4 1.4V24h-1.1v-2.6c0-.3-.1-.5-.2-.8-.2-.2-.4-.3-.7-.2-.3 0-.6.1-.7.4-.2.3-.3.8-.3 1.2v2h-1.1v-4.5h1v.8zm5.1 1.9c-.6-.5-.7-1.5-.2-2.1.1-.1.1-.2.2-.2.4-.3.8-.4 1.3-.4.4 0 .8.1 1.2.3 0-.3.2-.6.4-.9.3-.2.6-.3.9-.3l-.1 1c-.5 0-.8.2-.8.5.2.2.3.5.3.9 0 .3 0 .5-.2.7-.1.2-.3.4-.4.5-.4.3-.9.5-1.4.4-.3 0-.6 0-.8-.1-.2 0-.4.2-.4.4 0 .3.2.4.7.4h1.5c1 0 1.5.4 1.5 1.1 0 .2-.1.5-.2.7-.1.2-.3.5-.5.6-.6.4-1.2.6-1.9.6-.6 0-1.3-.1-1.8-.5-.4-.2-.6-.6-.6-1.1 0-.2.1-.5.2-.7.2-.2.4-.3.7-.3-.3-.2-.5-.5-.6-.8 0-.2.1-.4.2-.5.4-.1.6-.2.8-.2zm.9 1.9c-.6 0-.9.2-.9.7 0 .2.2.4.4.5.3.1.6.2.9.2.3 0 .5 0 .8-.1.2 0 .3-.1.5-.2s.4-.4.4-.7c0-.1 0-.2-.1-.3-.1-.1-.2-.1-.3-.1h-1.7zm1.4-3.1c0-.2-.1-.4-.2-.6-.2-.2-.4-.3-.6-.2-.2 0-.5.1-.6.2-.2.2-.2.4-.2.6 0 .2.1.5.2.6.2.2.4.3.6.2.2 0 .5-.1.6-.2.1-.2.2-.4.2-.6zm7-3c.8 0 1.6.3 2.2.8.6.6.9 1.4.9 2.2 0 .8-.3 1.6-.9 2.2-.6.6-1.4.9-2.2.8h-2v-6h2zm-.9 5h.9c.5 0 1-.2 1.4-.6.3-.4.5-.9.5-1.4 0-.5-.2-1-.5-1.5-.4-.4-.9-.6-1.4-.5h-.9v4zm5.3-4.9c0-.2.1-.3.2-.5.3-.2.7-.2 1 0 .2.3.2.7 0 .9-.3.2-.7.2-1 0-.2-.1-.2-.2-.2-.4zm.1 1.4h1.1V24H228v-4.5zm4 .9c.1-.6.6-1 1.2-1 .1 0 .3 0 .4.1v1.1l-.5-.1c-.7 0-1.1.5-1.1 1.5v2h-1.1v-4.5h1.1v.9zm6.3.4c.1.2.1.5.1.7v.6h-2.9c0 .3.1.6.3.9.2.2.5.4.8.3.4 0 .7-.2.8-.6h1.1c-.1.4-.3.8-.6 1.1-.4.3-.8.4-1.3.4-.6 0-1.1-.2-1.5-.6-.4-.5-.6-1.1-.6-1.7 0-.6.2-1.3.6-1.7.4-.4.9-.6 1.5-.6s1.1.2 1.4.7c.1 0 .2.2.3.5zm-1.8-.5c-.3 0-.5.1-.7.3-.2.2-.3.5-.3.8h1.9c.1-.4-.1-.8-.5-1-.1-.1-.3-.1-.4-.1zm4.9-.9c.3 0 .5 0 .8.1.2.1.4.2.6.4.3.3.5.7.6 1.1h-1.1c0-.2-.1-.4-.3-.5-.1-.1-.3-.2-.5-.2s-.3 0-.4.1l-.3.2c-.2.3-.3.7-.3 1.1 0 .4.1.7.3 1 .2.2.4.4.7.4.2 0 .4 0 .6-.1.1-.1.2-.3.2-.5h1.1c0 .5-.2.9-.5 1.2-.4.4-.9.5-1.4.5-.6 0-1.1-.2-1.5-.6-.4-.5-.7-1.1-.6-1.7-.1-.7.2-1.3.6-1.8.3-.5.8-.7 1.4-.7zm5.7 4.5c-.3.1-.7.2-1 .2-.2 0-.4 0-.6-.1l-.5-.2c-.3-.3-.4-.6-.4-1v-2.6h-.6v-.7h.6v-1.2h1.1v1.2h1.3v.7h-1.2v2.5c0 .4.2.5.5.5l.7-.1.1.8z"></path></svg>