<svg version="1.1" id="Layer_1" xmlns="http://www.w3.org/2000/svg" xmlns:xlink="http://www.w3.org/1999/xlink" x="0px" y="0px" viewBox="0 0 1350.3 159.2" style="enable-background:new 0 0 1350.3 159.2;" xml:space="preserve">
<style type="text/css">
	.st0{fill:url(#SVGID_1_);}
	.st1{fill:none;stroke:#929497;stroke-width:3;stroke-miterlimit:10;}
	.st2{fill:#404041;}
	.st3{fill:#6D6E70;}
</style>
<g>
	<linearGradient id="SVGID_1_" gradientUnits="userSpaceOnUse" x1="385.6289" y1="9.3605" x2="385.6289" y2="101.8036">
		<stop offset="0" style="stop-color:#2E2E78"></stop>
		<stop offset="0.1087" style="stop-color:#2E2E78"></stop>
		<stop offset="1" style="stop-color:#692C81"></stop>
	</linearGradient>
	<path class="st0" d="M770.6,94.2l-0.8-1.2l-0.8-1.2l-0.8-1.2l-0.8-1.2l-0.8-1.2l-0.8-1.2l-0.8-1.2l-0.8-1.2l-0.8-1.2l-0.8-1.2
		l-0.8-1.2l-0.8-1.2l-0.8-1.2l-0.8-1.2l-0.8-1.2l-0.8-1.2l-0.8-1.2l-0.8-1.2l-0.8-1.2l-0.8-1.2l-0.8-1.2L754,67l-0.8-1.2l-0.8-1.2
		l-0.8-1.2L751,62l-0.8-1.2l-0.8-1.2l-0.8-1.2l-0.8-1.2l-0.8-1.2l-0.8-1.2l-0.8-1.2l-0.8-1.2l-0.8-1.2l-0.8-1.2l-0.8-1.2l-0.8-1.2
		l-0.8-1.2l-0.8-1.2l-0.8-1.2l-0.8-1.2l-0.8-1.2l-0.8-1.2l-0.8-1.2l-0.8-1.2l-0.8-1.2l-0.8-1.2l-0.8-1.2l-0.8-1.2l-0.8-1.2l-0.8-1.2
		l-0.8-1.2l-0.8-1.2l-0.8-1.2l-0.8-1.2l-0.8-1.2l-0.8-1.2l-4.2-6.9l-4.2,6.9l-0.8,1.2l-0.8,1.2l-0.8,1.2l-0.8,1.2l-0.8,1.2l-0.8,1.2
		l-0.8,1.2l-0.8,1.2l-0.8,1.2l-0.8,1.2l-0.8,1.2l-0.8,1.2l-0.8,1.2l-0.8,1.2l-0.8,1.2l-0.8,1.2l-0.8,1.2l-0.8,1.2l-0.8,1.2l-0.8,1.2
		l-0.8,1.2l-0.8,1.2l-0.8,1.2l-0.8,1.2l-0.8,1.2l-0.8,1.2l-0.8,1.2l-0.8,1.2l-0.8,1.2l-0.8,1.2l-0.8,1.2l-0.8,1.2l-0.8,1.2l-0.8,1.2
		l-0.8,1.2l-0.8,1.2l-0.8,1.2l-0.8,1.2l-0.8,1.2l-0.8,1.2l-0.8,1.2l-0.8,1.2l-0.8,1.2l-0.8,1.2l-0.8,1.2l-0.8,1.2l-0.8,1.2l-0.8,1.2
		l-0.8,1.2l-0.8,1.2l-0.8,1.2l-0.8,1.2l-0.8,1.2l-0.8,1.2l-3.7,5.9l15.9,0l0.7-1l0.8-1.2l0.8-1.2l0.8-1.2l0.8-1.2l0.8-1.2l0.8-1.2
		l0.8-1.2l0.8-1.2l0.8-1.2l0.9-1.4l49,0l0.9,1.2l0.8,1.4l0.8,1.2l0.8,1.2l0.8,1.2l0.8,1.2l0.8,1.2l0.8,1.2l0.8,1.2l0.8,1.2l0.6,1
		l15.8,0L770.6,94.2z M706.6,68.1l1.2-1.8l0.8-1.2l0.8-1.2l0.8-1.2l0.8-1.2l0.8-1.2l0.8-1.2l0.8-1.2l0.8-1.2l0.8-1.2l0.8-1.2
		l0.8-1.2l0.8-1.2l0.8-1.2l0.8-1.2l0.8-1.2l0.8-1.2l0.8-1.2l0.8-1.2l0.8-1.2l0.5-0.8l0.5,0.8l0.8,1.2l0.8,1.2l0.8,1.2l0.8,1.2
		l0.8,1.2l0.8,1.2l0.8,1.2l0.8,1.2l0.8,1.2l0.8,1.2l0.8,1.2l0.8,1.2L733,59l0.8,1.2l0.8,1.2l0.8,1.2l0.8,1.2l0.8,1.2l0.8,1.2
		l1.1,1.9L706.6,68.1z M654.9,37.4c0-0.4-0.1-0.8-0.1-1.2c0-0.4-0.1-0.8-0.2-1.2c-0.1-0.4-0.1-0.8-0.2-1.2c-0.1-0.4-0.2-0.8-0.3-1.2
		c-0.1-0.4-0.2-0.8-0.4-1.2c-0.1-0.4-0.3-0.8-0.5-1.2c-0.2-0.4-0.3-0.8-0.5-1.2c-0.2-0.4-0.4-0.8-0.6-1.2c-0.2-0.4-0.5-0.8-0.7-1.2
		c-0.3-0.4-0.5-0.8-0.8-1.2c-0.3-0.4-0.6-0.8-0.9-1.2c-4.3-5.1-10.7-8.3-17.8-8.3H574V24v1.2v1.2v1.2v1.2v1.2v1.2v1.2v1.2V35v1.2
		v1.2v1.2v1.2V41v1.2v1.2v1.2v1.2v1.2v1.2v1.2v1.2v1.2v1.2v1.2v1.2v1.2V58v1.2v1.2v1.2v1.2v1.2v1.2v1.2v1.2v1.2v1.2v1.2v1.2v1.2V75
		v1.2v1.2v1.2v1.2V81v1.2v1.2v1.2v1.2v1.2v1.2v1.2v1.2V92v1.2v1.2l0,0.8h13.5l0-0.8v-1.2V92v-1.2v-1.2v-1.2v-1.2v-1.2v-1.2v-1.2
		v-1.2V81v-1.2v-1.2v-1.2v-1.2V75v-1.2v-1.2v-1.2v-1.2v-1.2v-1.2v-1.2v-1.2v-1.2v-1.2l0-0.4l31.4,0l19.8,32.7l16.6,0l-19.9-32.8
		c0,0,3.6-1.4,4.9-1.9c0.9-0.4,1.8-0.8,2.6-1.2c0.7-0.4,1.3-0.8,2-1.2c0.6-0.4,1.1-0.8,1.6-1.2c0.5-0.4,0.9-0.8,1.4-1.2
		c0.4-0.4,0.8-0.8,1.2-1.2c0.4-0.4,0.7-0.8,1-1.2c0.3-0.4,0.6-0.8,0.9-1.2c0.3-0.4,0.5-0.8,0.8-1.2c0.2-0.4,0.5-0.8,0.7-1.2
		c0.2-0.4,0.4-0.8,0.6-1.2c0.2-0.4,0.3-0.8,0.5-1.2c0.2-0.4,0.3-0.8,0.4-1.2c0.1-0.4,0.2-0.8,0.4-1.2c0.1-0.4,0.2-0.8,0.3-1.2
		c0.1-0.4,0.2-0.8,0.2-1.2c0.1-0.4,0.1-0.8,0.1-1.2c0-0.4,0.1-0.8,0.1-1.2c0-0.3,0-0.7,0-1c0-0.1,0-0.2,0-0.2
		C654.9,38.2,654.9,37.8,654.9,37.4z M641.5,39.8c0,0.4-0.1,0.8-0.2,1.2c-0.1,0.4-0.2,0.8-0.4,1.2c-0.2,0.4-0.3,0.8-0.5,1.2
		c-0.2,0.4-0.5,0.8-0.8,1.2c-0.3,0.4-0.7,0.8-1.1,1.2c-0.5,0.5-1,0.9-1.5,1.3c-0.9,0.5-1.7,1.1-2.7,1.5c-1,0.4-1.7,0.5-2.6,0.5
		h-44.4l0.1-0.9v-1.2v-1.2v-1.2v-1.2v-1.2V41v-1.2v-1.2v-1.2v-1.2V35v-1.2v-1.2v-1.2v-1.2V29h44.3c1.6,0,3.1,0.4,4.4,1.1
		c0.7,0.3,1.3,0.7,1.8,1.2c0.4,0.4,0.8,0.8,1.2,1.2c0.3,0.4,0.6,0.8,0.9,1.2c0.2,0.4,0.5,0.8,0.6,1.2c0.2,0.4,0.3,0.8,0.4,1.2
		c0.1,0.4,0.2,0.8,0.3,1.2c0.1,0.4,0.1,0.8,0.1,1.2c0,0.1,0,0.2,0,0.2C641.5,39.2,641.5,39.5,641.5,39.8z M244.6,71.4
		c0,0.2,0,0.4,0,0.6c0,0.2,0,0.4,0,0.6c0,0.4,0,0.8-0.1,1.2c0,0.4-0.1,0.8-0.1,1.2c-0.1,0.4-0.1,0.8-0.2,1.2
		c-0.1,0.4-0.2,0.8-0.3,1.2c-0.1,0.4-0.2,0.8-0.3,1.2c-0.1,0.4-0.3,0.8-0.4,1.2c-0.1,0.4-0.3,0.8-0.5,1.2c-0.2,0.4-0.4,0.8-0.6,1.2
		c-0.2,0.4-0.4,0.8-0.7,1.2c-0.2,0.4-0.5,0.8-0.7,1.2c-0.3,0.4-0.6,0.8-0.9,1.2c-0.3,0.4-0.7,0.8-1,1.2c-0.4,0.4-0.7,0.8-1.1,1.2
		c-0.4,0.4-0.9,0.8-1.3,1.2c-0.5,0.4-1,0.8-1.6,1.2c-0.6,0.4-1.3,0.8-1.9,1.2c-0.8,0.4-1.6,0.9-2.5,1.2c-1.2,0.5-2.4,0.9-3.7,1.2
		c-1.9,0.5-3.9,0.7-5.9,0.7l-57.2-0.2l8-13.2l49.5,0.1c1.3,0,2.6-0.3,3.7-0.7c0.8-0.3,1.5-0.7,2.1-1.2c0.5-0.4,0.9-0.8,1.4-1.2
		c0.4-0.4,0.7-0.8,1-1.2c0.3-0.4,0.5-0.8,0.7-1.2c0.2-0.4,0.4-0.8,0.5-1.2c0.1-0.4,0.2-0.8,0.3-1.2c0.1-0.4,0.1-0.8,0.1-1.2
		c0-0.2,0-0.4,0-0.6c0-0.2,0-0.4,0-0.6c0-0.4-0.1-0.8-0.1-1.2c-0.1-0.4-0.2-0.8-0.3-1.2c-0.1-0.4-0.3-0.8-0.5-1.2
		c-0.2-0.4-0.4-0.8-0.7-1.2c-0.3-0.4-0.6-0.8-1-1.2c-0.4-0.4-0.9-0.9-1.4-1.2c-0.7-0.5-1.4-0.9-2.2-1.2c-1.1-0.4-2.3-0.4-3.5-0.4
		L187,62.6c-1.8-0.2-3.5-0.2-5.2-0.6c-1.7-0.4-2.6-0.8-3.9-1.3c-0.9-0.4-1.6-0.8-2.4-1.3c-0.7-0.4-1.2-0.8-1.8-1.2
		c-0.5-0.4-1.1-0.8-1.6-1.3c-0.5-0.4-0.9-0.8-1.3-1.2c-0.4-0.4-0.8-0.8-1.2-1.2c-0.3-0.4-0.7-0.8-1-1.2c-0.3-0.4-0.6-0.8-0.9-1.2
		c-0.3-0.4-0.5-0.8-0.8-1.2c-0.2-0.4-0.5-0.8-0.7-1.2c-0.2-0.4-0.4-0.8-0.6-1.2c-0.2-0.4-0.3-0.8-0.5-1.2c-0.1-0.4-0.3-0.8-0.4-1.2
		c-0.1-0.4-0.2-0.8-0.3-1.2c-0.1-0.4-0.2-0.8-0.3-1.2c-0.1-0.4-0.1-0.8-0.2-1.2c-0.1-0.4-0.1-0.8-0.1-1.2c0-0.4-0.1-0.8-0.1-1.2
		c0-0.3,0-0.6,0-0.9c0-0.1,0-0.2,0-0.4c0-0.4,0-0.8,0-1.2c0-0.4,0.1-0.8,0.1-1.2c0-0.4,0.1-0.8,0.2-1.2c0.1-0.4,0.2-0.8,0.2-1.2
		c0.1-0.4,0.2-0.8,0.3-1.2c0.1-0.4,0.2-0.8,0.4-1.2c0.1-0.4,0.3-0.8,0.5-1.2c0.2-0.4,0.3-0.8,0.5-1.2c0.2-0.4,0.4-0.8,0.6-1.2
		c0.2-0.4,0.5-0.8,0.7-1.2c0.3-0.4,0.5-0.8,0.8-1.2c0.3-0.4,0.6-0.8,0.9-1.2c4.3-5.1,10.7-8.3,17.8-8.3l57.7-0.1l-8.5,13.6l-49.2,0
		c-1.5,0-2.9,0.3-4.2,1c-0.7,0.3-1.3,0.7-1.9,1.2c-0.5,0.4-0.9,0.8-1.3,1.2c-0.3,0.4-0.6,0.8-0.9,1.2c-0.2,0.4-0.5,0.8-0.7,1.2
		c-0.2,0.4-0.3,0.8-0.5,1.2c-0.1,0.4-0.2,0.8-0.3,1.2c-0.1,0.4-0.1,0.8-0.1,1.2c0,0.1,0,0.2,0,0.4c0,0.3,0,0.6,0,0.9
		c0,0.4,0.1,0.8,0.2,1.2c0.1,0.4,0.2,0.8,0.4,1.2c0.1,0.4,0.3,0.8,0.5,1.2c0.2,0.4,0.5,0.8,0.8,1.2c0.3,0.4,0.6,0.8,1,1.2
		c0.5,0.5,0.9,0.9,1.5,1.2c0.8,0.5,1.5,1,2.4,1.4c0.9,0.4,2.1,0.8,3.1,0.8l34.3,0c2,0,5,0.2,5.9,0.4c1.2,0.2,2.4,0.5,3.5,1
		c0.8,0.4,1.6,0.8,2.4,1.2c0.6,0.4,1.3,0.8,1.9,1.2c0.5,0.4,1,0.8,1.5,1.2c0.5,0.4,0.9,0.8,1.3,1.2c0.4,0.4,0.8,0.8,1.1,1.2
		c0.3,0.4,0.7,0.8,1,1.2c0.3,0.4,0.6,0.8,0.9,1.2c0.3,0.4,0.5,0.8,0.7,1.2c0.2,0.4,0.4,0.8,0.7,1.2c0.2,0.4,0.4,0.8,0.6,1.2
		c0.2,0.4,0.3,0.8,0.5,1.2c0.1,0.4,0.3,0.8,0.4,1.2c0.1,0.4,0.2,0.8,0.3,1.2c0.1,0.4,0.2,0.8,0.3,1.2c0.1,0.4,0.1,0.8,0.2,1.2
		c0.1,0.4,0.1,0.8,0.1,1.2C244.6,70.6,244.6,71,244.6,71.4z M532.2,29.3l-58.8,0l0-13.6l66.8,0L532.2,29.3z M395.2,81.8l54,0
		l-8.4,13.2l-59.1,0v-0.7v-1.2V92v-1.2v-1.2v-1.2v-1.2v-1.2v-1.2v-1.2v-1.2V81v-1.2v-1.2v-1.2v-1.2V75v-1.2v-1.2v-1.2v-1.2v-1.2
		v-1.2v-1.2v-1.2v-1.2v-1.2v-1.2v-1.2v-1.2V58v-1.2v-1.2v-1.2v-1.2v-1.2v-1.2v-1.2v-1.2v-1.2v-1.2v-1.2v-1.2v-1.2V41v-1.2v-1.2v-1.2
		v-1.2V35v-1.2v-1.2v-1.2v-1.2v-1.2v-1.2v-1.2v-1.2V24v-8.3h13.4V24v1.2v1.2v1.2v1.2v1.2v1.2v1.2v1.2V35v1.2v1.2v1.2v1.2V41v1.2v1.2
		v1.2v1.2v1.2v1.2v1.2v1.2v1.2v1.2v1.2v1.2v1.2V58v1.2v1.2v1.2v1.2v1.2v1.2v1.2v1.2v1.2v1.2v1.2v1.2v1.2V75v1.2v1.2v1.2v1.2V81
		L395.2,81.8z M352.4,38.8c0,0.2,0,0.4,0,0.5V40v1.2v1.2v1.2v1.2c0,1.5,0,3,0,4.5h-13.4v-3.2h0v-0.1v-1.2v-1.2v-1.2v-1.2V40v-0.7
		c0-0.2,0-0.4,0-0.5c0-0.4-0.1-0.8-0.1-1.2c-0.1-0.4-0.2-0.8-0.3-1.2c-0.1-0.4-0.3-0.8-0.5-1.2c-0.2-0.4-0.4-0.8-0.7-1.2
		c-0.3-0.4-0.6-0.8-0.9-1.2c-0.4-0.4-0.8-0.8-1.2-1.2c-0.6-0.5-1.2-0.9-1.8-1.2c-1.4-0.7-3-1.1-4.7-1.1h-33.6
		c-1.7,0-3.3,0.4-4.7,1.1c-0.7,0.3-1.3,0.7-1.8,1.2c-0.4,0.4-0.8,0.8-1.2,1.2c-0.3,0.4-0.6,0.8-0.9,1.2c-0.2,0.4-0.5,0.8-0.6,1.2
		c-0.2,0.4-0.3,0.8-0.4,1.2c-0.1,0.4-0.2,0.8-0.3,1.2c-0.1,0.4-0.1,0.8-0.1,1.2c0,0.2,0,0.4,0,0.5V40v1.2v0.8h0v7.3h-13.4
		c0-1.5,0-3,0-4.5v-1.2v-1.2v-1.2V40v-0.7c0-0.2,0-0.4,0-0.5c0-0.4,0-0.8,0.1-1.2c0-0.4,0.1-0.8,0.1-1.2c0.1-0.4,0.1-0.8,0.2-1.2
		c0.1-0.4,0.2-0.8,0.3-1.2c0.1-0.4,0.2-0.8,0.3-1.2c0.1-0.4,0.2-0.8,0.4-1.2c0.1-0.4,0.3-0.8,0.5-1.2c0.2-0.4,0.3-0.8,0.5-1.2
		c0.2-0.4,0.4-0.8,0.6-1.2c0.2-0.4,0.5-0.8,0.7-1.2c0.3-0.4,0.5-0.8,0.8-1.2c0.3-0.4,0.6-0.8,0.9-1.2c4.3-5.2,10.9-8.5,18.1-8.5
		h33.6c7.3,0,13.8,3.3,18.1,8.5c0.3,0.4,0.6,0.8,0.9,1.2c0.3,0.4,0.6,0.8,0.8,1.2c0.3,0.4,0.5,0.8,0.7,1.2c0.2,0.4,0.4,0.8,0.6,1.2
		c0.2,0.4,0.4,0.8,0.5,1.2c0.2,0.4,0.3,0.8,0.5,1.2c0.1,0.4,0.3,0.8,0.4,1.2c0.1,0.4,0.2,0.8,0.3,1.2c0.1,0.4,0.2,0.8,0.3,1.2
		c0.1,0.4,0.1,0.8,0.2,1.2c0.1,0.4,0.1,0.8,0.1,1.2C352.3,38,352.4,38.4,352.4,38.8z M352.3,65.9L352.3,65.9l0,0.8v1.2v1.2v1.2v1.2
		c0,0,0,0,0,0c0,0.4,0,0.8,0,1.2c0,0.4-0.1,0.8-0.1,1.2c0,0.4-0.1,0.8-0.2,1.2c-0.1,0.4-0.1,0.8-0.2,1.2c-0.1,0.4-0.2,0.8-0.3,1.2
		c-0.1,0.4-0.2,0.8-0.4,1.2c-0.1,0.4-0.3,0.8-0.4,1.2c-0.2,0.4-0.3,0.8-0.5,1.2c-0.2,0.4-0.4,0.8-0.6,1.2c-0.2,0.4-0.4,0.8-0.7,1.2
		c-0.2,0.4-0.5,0.8-0.8,1.2c-0.3,0.4-0.6,0.8-0.9,1.2c-0.3,0.4-0.7,0.8-1,1.2c-0.4,0.4-0.8,0.8-1.2,1.2c-0.4,0.4-0.9,0.8-1.4,1.2
		c-0.5,0.4-1.1,0.8-1.6,1.2c-0.6,0.4-1.3,0.8-2,1.2c-0.8,0.5-1.7,0.9-2.5,1.2c-1.3,0.5-2.6,0.9-3.9,1.2c-1.6,0.3-3.2,0.5-4.9,0.5
		h-33.6c-1.7,0-3.3-0.2-4.9-0.5c-1.4-0.3-2.7-0.7-4-1.2c-0.9-0.4-1.7-0.8-2.5-1.2c-0.7-0.4-1.3-0.8-2-1.2c-0.6-0.4-1.1-0.8-1.6-1.2
		c-0.5-0.4-0.9-0.8-1.4-1.2c-0.4-0.4-0.8-0.8-1.2-1.2c-0.4-0.4-0.7-0.8-1-1.2c-0.3-0.4-0.6-0.8-0.9-1.2c-0.3-0.4-0.5-0.8-0.8-1.2
		c-0.2-0.4-0.5-0.8-0.7-1.2c-0.2-0.4-0.4-0.8-0.6-1.2c-0.2-0.4-0.4-0.8-0.5-1.2c-0.2-0.4-0.3-0.8-0.4-1.2c-0.1-0.4-0.3-0.8-0.4-1.2
		c-0.1-0.4-0.2-0.8-0.3-1.2c-0.1-0.4-0.2-0.8-0.2-1.2c-0.1-0.4-0.1-0.8-0.2-1.2c0-0.4-0.1-0.8-0.1-1.2c0-0.4,0-0.8,0-1.1v-0.1v-1.2
		v-1.2v-1.2v-1.2v-0.8c0-1.1,0-2.1,0-3.2H285v3.2h0v0.8v1.2v1.2v1.2v1.2v0.1c0,0.4,0,0.8,0.1,1.1c0,0.4,0.1,0.8,0.2,1.2
		c0.1,0.4,0.2,0.8,0.4,1.2c0.2,0.4,0.3,0.8,0.5,1.2c0.2,0.4,0.5,0.8,0.8,1.2c0.3,0.4,0.7,0.8,1,1.2c0.4,0.4,0.9,0.9,1.5,1.2
		c0.8,0.5,1.6,0.9,2.5,1.2c1,0.3,2.1,0.5,3.3,0.5h33.6c1.1,0,2.2-0.2,3.3-0.5c0.9-0.3,1.7-0.7,2.5-1.2c0.5-0.4,1-0.8,1.5-1.2
		c0.4-0.4,0.7-0.8,1-1.2c0.3-0.4,0.5-0.8,0.8-1.2c0.2-0.4,0.4-0.8,0.5-1.2c0.1-0.4,0.3-0.8,0.4-1.2c0.1-0.4,0.2-0.8,0.2-1.2
		c0-0.4,0.1-0.8,0.1-1.1v-0.1v-1.2v-1.2v-1.2v-1.2v-0.8v-3.2h13.4V65.9z M486.9,82l57.3,0L536,95.2l-62.5,0l0-0.6v-1.2v-1.2v-1.2
		v-1.2v-1.2v-1.2v-1.2v-1.2v-1.2v-1.2v-1.2V80v-1.2v-1.2v-1.2v-1.2v-1.2v-1.2v-1.2v-1.2v-1.2v-1.2v-1.2v-1.2v-1.2V63v-1.2v-1.2v-1.2
		v-1.2V57v-0.9v-0.3v-1.2v-1.2v-1.2v-1.2v-1.2v-0.8l-0.1-6.4l62.5,0l0,13.5l-49,0l0,6.2V63v1.2v1.2v1.2v1.2v1.2v1.2v1.2v1.2v1.2v1.2
		v1.2v1.2v1.2V80v1.2V82z M40.7,81.6c0-6.8,6.2-12.3,14-12.3h46.7L88.8,81.8L40.7,81.6z M51.5,101.8c2.8-7.9,10.6-13.3,19.4-13.3
		h10.9l-13.4,13.3L51.5,101.8z M0,62.5l13.1-13.2l107.8,0.1l-13,13.1L0,62.5z M80.6,29.2c0,7.3-6.2,13.3-14,13.3H19.9l13.4-13.3
		L80.6,29.2z M70.2,9.4c-2.8,7.9-10.6,13.3-19.4,13.3H39.9L53.1,9.4L70.2,9.4z"></path>
	<line class="st1" x1="854.6" y1="9.1" x2="854.6" y2="102.1"></line>
	<g>
		<path class="st2" d="M969.4,94.7c-8.9,0-16.3-3-22.3-9c-6-6-9-13.5-9-22.5c0-9,3-16.5,9-22.5c6-6,13.4-9,22.3-9
			c7.2,0,13.5,2,18.9,6c5.4,4,8.9,9.5,10.5,16.3h-9.5c-1.4-4.3-3.9-7.6-7.5-10.1c-3.6-2.5-7.7-3.7-12.4-3.7
			c-6.4,0-11.6,2.2-15.8,6.5c-4.1,4.3-6.2,9.8-6.2,16.5c0,6.7,2.1,12.2,6.2,16.5c4.1,4.3,9.4,6.5,15.8,6.5c4.7,0,8.8-1.2,12.4-3.7
			c3.6-2.5,6.1-5.9,7.5-10.1h9.5c-1.6,6.9-5.1,12.3-10.6,16.3C982.8,92.7,976.5,94.7,969.4,94.7z"></path>
		<path class="st2" d="M1060.7,33h9.1v60.5h-9.1V81.3c-2.4,4.2-5.6,7.5-9.6,9.8c-4,2.4-8.6,3.6-13.7,3.6c-8.2,0-15-3-20.3-8.9
			c-5.3-5.9-8-13.4-8-22.6c0-9.2,2.7-16.7,8-22.6c5.3-5.9,12.1-8.9,20.3-8.9c5.1,0,9.7,1.2,13.8,3.6c4,2.4,7.2,5.8,9.6,10V33z
			 M1039.1,86c6.2,0,11.4-2.1,15.5-6.4c4.1-4.3,6.2-9.7,6.2-16.3c0-6.6-2.1-12-6.2-16.3c-4.1-4.3-9.3-6.4-15.5-6.4
			c-6.2,0-11.2,2.1-15,6.4c-3.8,4.3-5.8,9.7-5.8,16.3c0,6.7,1.9,12.1,5.8,16.4C1028.1,83.9,1033.1,86,1039.1,86z"></path>
		<path class="st2" d="M1119.1,31.8c8.2,0,15,3,20.3,8.9c5.3,5.9,8,13.4,8,22.6c0,9.2-2.7,16.7-8,22.6c-5.4,5.9-12.1,8.9-20.4,8.9
			c-5.1,0-9.7-1.2-13.7-3.6c-4-2.4-7.2-5.7-9.5-9.8V121h-9.1V33h9.1v12.4c2.3-4.3,5.5-7.6,9.6-10C1109.4,33,1114,31.8,1119.1,31.8z
			 M1117.4,86c6.1,0,11.1-2.1,15-6.4c3.9-4.3,5.8-9.7,5.8-16.4c0-6.6-1.9-12-5.8-16.3c-3.9-4.3-8.9-6.4-15-6.4
			c-6.2,0-11.4,2.1-15.5,6.4c-4.1,4.3-6.2,9.7-6.2,16.3c0,6.6,2.1,12,6.2,16.3C1105.9,83.9,1111.1,86,1117.4,86z"></path>
		<path class="st2" d="M1225.6,31.8c6.9,0,12.3,2.1,16.1,6.2c3.8,4.1,5.8,9.8,5.8,17.2v38.4h-9.1V56.9c0-10.9-5.1-16.4-15.3-16.4
			c-6.1,0-10.8,2-14.1,5.9c-3.3,4-5,9.3-5,16.1v31h-9.1V8.8h9.1v36C1208.4,36.1,1215.6,31.8,1225.6,31.8z"></path>
		<path class="st2" d="M1296.2,31.8c8.2,0,15,3,20.3,8.9c5.3,5.9,8,13.4,8,22.6c0,9.2-2.7,16.7-8,22.6c-5.4,5.9-12.1,8.9-20.3,8.9
			c-5.1,0-9.7-1.2-13.7-3.6c-4-2.4-7.2-5.7-9.5-9.8V121h-9.1V33h9.1v12.4c2.3-4.3,5.5-7.6,9.6-10C1286.5,33,1291.1,31.8,1296.2,31.8
			z M1294.4,86c6.1,0,11.1-2.1,15-6.4c3.9-4.3,5.8-9.7,5.8-16.4c0-6.6-1.9-12-5.8-16.3c-3.9-4.3-8.9-6.4-15-6.4
			c-6.2,0-11.4,2.1-15.5,6.4c-4.1,4.3-6.2,9.7-6.2,16.3c0,6.6,2.1,12,6.2,16.3C1283,83.9,1288.2,86,1294.4,86z"></path>
		<path class="st2" d="M1338.4,8.1c1.2-1.2,2.7-1.8,4.6-1.8s3.4,0.6,4.6,1.8c1.2,1.2,1.8,2.6,1.8,4.3c0,1.8-0.6,3.2-1.8,4.4
			c-1.2,1.2-2.7,1.8-4.6,1.8s-3.4-0.6-4.6-1.8c-1.2-1.2-1.8-2.6-1.8-4.4C1336.6,10.7,1337.2,9.3,1338.4,8.1z M1338.3,93.5V33h9.1
			v60.5H1338.3z"></path>
	</g>
	<g>
		<g>
			<path class="st3" d="M179.8,124.5h3.2l-9.1,25.2H170l-9-25.2h3.2l7.8,21.9L179.8,124.5z"></path>
			<path class="st3" d="M200.6,129.5c3.1,0,5.5,1,7.3,3.1c1.8,2.1,2.7,4.8,2.6,8.1h-17c0.1,2,0.9,3.6,2.2,4.8c1.3,1.2,3,1.8,5,1.8
				c3,0,5-1.2,6.2-3.5h3.1c-0.8,2-2.1,3.6-3.7,4.7c-1.7,1.1-3.6,1.6-5.7,1.6c-3,0-5.4-1-7.3-2.9c-1.9-1.9-2.9-4.4-2.9-7.4
				s0.9-5.5,2.8-7.4C195.2,130.5,197.6,129.5,200.6,129.5z M200.6,132.3c-1.8,0-3.3,0.5-4.5,1.5c-1.2,1-2,2.4-2.4,4h13.6
				c-0.3-1.7-1.1-3-2.3-4C203.8,132.8,202.3,132.3,200.6,132.3z"></path>
			<path class="st3" d="M232.3,129.5c2.3,0,4,0.7,5.3,2c1.3,1.3,1.9,3.2,1.9,5.6v12.6h-3v-12c0-3.6-1.7-5.4-5-5.4
				c-2,0-3.5,0.6-4.6,1.9c-1.1,1.3-1.6,3-1.6,5.3v10.2h-3V122h3v11.8C226.7,130.9,229,129.5,232.3,129.5z"></path>
			<path class="st3" d="M251.8,121.8c0.4-0.4,0.9-0.6,1.5-0.6c0.6,0,1.1,0.2,1.5,0.6c0.4,0.4,0.6,0.9,0.6,1.4c0,0.6-0.2,1.1-0.6,1.4
				s-0.9,0.6-1.5,0.6c-0.6,0-1.1-0.2-1.5-0.6s-0.6-0.9-0.6-1.4C251.2,122.6,251.4,122.2,251.8,121.8z M251.8,149.7v-19.8h3v19.8
				H251.8z"></path>
			<path class="st3" d="M276.7,150.1c-2.9,0-5.3-1-7.3-2.9c-2-2-2.9-4.4-2.9-7.4s1-5.4,2.9-7.4c2-2,4.4-2.9,7.3-2.9
				c2.4,0,4.4,0.7,6.2,2c1.8,1.3,2.9,3.1,3.4,5.3h-3.1c-0.5-1.4-1.3-2.5-2.4-3.3c-1.2-0.8-2.5-1.2-4.1-1.2c-2.1,0-3.8,0.7-5.2,2.1
				c-1.4,1.4-2,3.2-2,5.4c0,2.2,0.7,4,2,5.4c1.4,1.4,3.1,2.1,5.2,2.1c1.5,0,2.9-0.4,4-1.2c1.2-0.8,2-1.9,2.5-3.3h3.1
				c-0.5,2.3-1.7,4-3.5,5.3C281.1,149.5,279,150.1,276.7,150.1z"></path>
			<path class="st3" d="M297.8,149.7V122h3v27.7H297.8z"></path>
			<path class="st3" d="M322.5,129.5c3.1,0,5.5,1,7.3,3.1c1.8,2.1,2.7,4.8,2.6,8.1h-17c0.1,2,0.9,3.6,2.2,4.8c1.3,1.2,3,1.8,5,1.8
				c3,0,5-1.2,6.2-3.5h3.1c-0.8,2-2.1,3.6-3.7,4.7c-1.7,1.1-3.6,1.6-5.7,1.6c-3,0-5.4-1-7.3-2.9c-1.9-1.9-2.9-4.4-2.9-7.4
				s0.9-5.5,2.8-7.4C317.2,130.5,319.6,129.5,322.5,129.5z M322.5,132.3c-1.8,0-3.3,0.5-4.5,1.5c-1.2,1-2,2.4-2.4,4h13.6
				c-0.3-1.7-1.1-3-2.3-4C325.8,132.8,324.3,132.3,322.5,132.3z"></path>
			<path class="st3" d="M371.3,135.5c1.7,0.4,3.1,0.7,4.1,1c1,0.3,2,0.7,2.9,1.3s1.6,1.2,2,2s0.6,1.8,0.6,2.9c0,2.4-0.9,4.3-2.7,5.5
				c-1.8,1.3-4,1.9-6.6,1.9c-3.2,0-5.6-0.7-7.4-2.2s-2.9-3.4-3.3-5.8h3c0.8,3.4,3.4,5.1,7.6,5.1c2,0,3.5-0.4,4.6-1.2
				c1.1-0.8,1.7-1.9,1.7-3.3c0-1.3-0.5-2.2-1.5-2.7c-1-0.5-2.9-1.1-5.7-1.7c-1.5-0.3-2.7-0.7-3.7-1c-0.9-0.3-1.9-0.7-2.7-1.2
				c-0.9-0.5-1.5-1.2-1.9-1.9c-0.4-0.8-0.6-1.7-0.6-2.8c0-2.3,0.9-4.1,2.6-5.4c1.7-1.3,3.9-1.9,6.4-1.9c2.8,0,5,0.6,6.7,1.8
				c1.6,1.2,2.7,2.8,3.2,4.9h-3c-1-2.6-3.3-3.9-6.8-3.9c-1.9,0-3.4,0.4-4.4,1.2c-1.1,0.8-1.6,1.9-1.6,3.3c0,1,0.5,1.8,1.4,2.3
				C366.9,134.3,368.7,134.9,371.3,135.5z"></path>
			<path class="st3" d="M401.7,129.5c2.9,0,5.3,1,7.3,2.9c2,2,3,4.4,3,7.4s-1,5.4-3,7.4c-2,2-4.4,2.9-7.3,2.9c-2.9,0-5.3-1-7.2-3
				c-2-2-3-4.4-3-7.3c0-2.9,1-5.4,3-7.3S398.8,129.5,401.7,129.5z M406.8,134.5c-1.4-1.4-3.1-2.1-5.1-2.1s-3.7,0.7-5.1,2.1
				c-1.4,1.4-2.1,3.2-2.1,5.3s0.7,3.9,2.1,5.3c1.4,1.4,3.1,2.1,5.1,2.1c2,0,3.7-0.7,5.1-2.1c1.4-1.4,2.1-3.2,2.1-5.3
				S408.2,135.9,406.8,134.5z"></path>
			<path class="st3" d="M423.7,149.7V122h3v27.7H423.7z"></path>
			<path class="st3" d="M453,129.9h3v19.8h-3v-3.9c-1.5,2.9-3.8,4.3-7.1,4.3c-2.2,0-3.9-0.7-5.2-2c-1.2-1.3-1.9-3.2-1.9-5.6v-12.6h3
				v12c0,3.6,1.6,5.4,4.9,5.4c1.9,0,3.5-0.6,4.6-1.9c1.1-1.3,1.6-3,1.6-5.3V129.9z"></path>
			<path class="st3" d="M482.4,146.4l0.5,2.5c-1.6,0.8-3.4,1.3-5.4,1.3c-2.2,0-3.9-0.7-5.2-2.1c-1.3-1.4-1.9-3.3-1.9-5.9v-9.4h-3.8
				v-2.8h3.8v-4.8l3-0.6v5.4h8.9v2.8h-8.9v9.3c0,3.6,1.5,5.3,4.6,5.3C479.2,147.3,480.6,147,482.4,146.4z"></path>
			<path class="st3" d="M494.2,121.8c0.4-0.4,0.9-0.6,1.5-0.6c0.6,0,1.1,0.2,1.5,0.6c0.4,0.4,0.6,0.9,0.6,1.4c0,0.6-0.2,1.1-0.6,1.4
				s-0.9,0.6-1.5,0.6c-0.6,0-1.1-0.2-1.5-0.6s-0.6-0.9-0.6-1.4C493.6,122.6,493.8,122.2,494.2,121.8z M494.2,149.7v-19.8h3v19.8
				H494.2z"></path>
			<path class="st3" d="M519.1,129.5c2.9,0,5.3,1,7.3,2.9c2,2,3,4.4,3,7.4s-1,5.4-3,7.4c-2,2-4.4,2.9-7.3,2.9c-2.9,0-5.3-1-7.2-3
				c-2-2-3-4.4-3-7.3c0-2.9,1-5.4,3-7.3C513.8,130.5,516.2,129.5,519.1,129.5z M524.2,134.5c-1.4-1.4-3.1-2.1-5.1-2.1
				s-3.7,0.7-5.1,2.1c-1.4,1.4-2.1,3.2-2.1,5.3s0.7,3.9,2.1,5.3c1.4,1.4,3.1,2.1,5.1,2.1c2,0,3.7-0.7,5.1-2.1
				c1.4-1.4,2.1-3.2,2.1-5.3S525.6,135.9,524.2,134.5z"></path>
			<path class="st3" d="M551.1,129.5c2.2,0,4,0.7,5.3,2c1.3,1.3,1.9,3.2,1.9,5.6v12.6h-3v-12c0-3.6-1.7-5.4-5-5.4
				c-2,0-3.5,0.6-4.6,1.9c-1.1,1.3-1.6,3-1.6,5.3v10.2h-3v-19.8h3v3.9C545.4,131,547.8,129.5,551.1,129.5z"></path>
			<path class="st3" d="M578.9,150.1c-2.6,0-4.7-0.6-6.4-1.7c-1.7-1.2-2.7-2.8-3.1-4.9h3.1c0.4,1.3,1.1,2.3,2.1,2.9
				c1,0.6,2.5,0.9,4.4,0.9c1.5,0,2.7-0.3,3.7-0.8c0.9-0.5,1.4-1.2,1.4-2.2c0-0.6-0.2-1.1-0.7-1.5c-0.5-0.4-1-0.7-1.5-0.8
				c-0.6-0.2-1.5-0.4-2.8-0.8c-0.3-0.1-0.6-0.1-0.7-0.2c-3-0.7-5-1.5-6.2-2.2c-1.1-0.7-1.7-1.8-1.7-3.4c0-1.9,0.7-3.3,2.2-4.4
				c1.5-1.1,3.4-1.6,5.8-1.6c2.3,0,4.2,0.5,5.6,1.5c1.5,1,2.4,2.4,2.8,4.2h-3c-0.7-1.9-2.5-2.8-5.3-2.8c-1.6,0-2.8,0.3-3.7,0.8
				s-1.4,1.2-1.4,2.1c0,0.7,0.4,1.3,1.1,1.6s2.2,0.8,4.5,1.4c1.1,0.3,1.9,0.5,2.4,0.6c0.5,0.1,1.2,0.3,1.9,0.6
				c0.8,0.3,1.3,0.5,1.7,0.8c0.4,0.2,0.7,0.5,1.1,0.9c0.4,0.4,0.6,0.8,0.8,1.3c0.1,0.5,0.2,1,0.2,1.6c0,1.9-0.8,3.4-2.3,4.5
				S581.3,150.1,578.9,150.1z"></path>
		</g>
	</g>
</g>
</svg>