<svg xmlns="http://www.w3.org/2000/svg" width="293.1" height="80" viewBox="0 0 293.1 80"><title>fleet-leasing</title><path fill="#F279A2" d="M98.3 27.7h95.4V44H98.3z"></path><path fill="#F59FBC" d="M145 .2h.6v22.3h-.6z"></path><path fill="#EC407A" d="M145.7 7l-7.8-2.8 7.8-2.8z"></path><path fill="#D1D1DA" d="M102.7 65.6h87.1V80h-87.1z"></path><path fill="#C9C9D4" d="M102.7 65.6h87.1V67h-87.1z"></path><path fill="#FCE2EB" d="M100 44h92.3v21.8H100z"></path><path fill="#FBD9E4" d="M100 60.9h1.3v1.6H100zm0 2h3.2v1.6H100zm3.7 0h3.4v1.6h-3.4zm-2-2h3.4v1.6h-3.4zm3.8 0h3.4v1.6h-3.4zm19.6-8.1h3.4v1.6h-3.4zm1.9 2h3.4v1.6H127zm2-2h3.4v1.6H129zm-5.8 2h3.4v1.6h-3.4zm-2-2h3.4v1.6h-3.4zm-3.8 0h3.4v1.6h-3.4zm1.9 2h3.4v1.6h-3.4zm13.5-2h3.4v1.6h-3.4zm10 2h3.4v1.6h-3.4zm-2-2h3.4v1.6h-3.4zm-3.8 0h3.4v1.6H137zm-2.1 2h3.4v1.6h-3.4zm-19.5 0h3.4v1.6h-3.4zm15.7 0h3.4v1.6h-3.4zm-27.4 0h3.4v1.6h-3.4zm-3.7 0h3.2v1.6H100zm0-2h1.3v1.6H100zm9.5 0h3.4v1.6h-3.4zm3.8 0h3.4v1.6h-3.4zm-11.6 0h3.4v1.6h-3.4zm5.8 2h3.4v1.6h-3.4zm3.9 0h3.4v1.6h-3.4zm-5.9-2h3.4v1.6h-3.4zm33.3 2h3.4v1.6h-3.4zm43.2 8.1h3.4v1.6H182zm3.8 0h3.4v1.6h-3.4zm-2.1-2h3.4v1.6h-3.4zm4 0h3.4v1.6h-3.4zm2 2h2.4v1.6h-2.4zm1.9-2h.6v1.6h-.6zm-21.4 2h3.4v1.6h-3.4zm1.8-2h3.4v1.6H172zm7.9 0h3.4v1.6h-3.4zm-11.8 0h3.4v1.6h-3.4zm9.9 2h3.4v1.6H178zm-4 0h3.4v1.6H174zm2.1-2h3.4v1.6h-3.4zm-9.9 2h3.4v1.6h-3.4zm-50.8 0h3.4v1.6h-3.4zm9.7-2h3.4v1.6h-3.4zm1.9 2h3.4v1.6H127zm-3.8 0h3.4v1.6h-3.4zm9.6-2h3.4v1.6h-3.4zm-11.6 0h3.4v1.6h-3.4zm7.8 0h3.4v1.6H129zm2.1 2h3.4v1.6h-3.4zm-13.7-2h3.4v1.6h-3.4zm-6 2h3.4v1.6h-3.4zm1.9-2h3.4v1.6h-3.4zm-3.8 0h3.4v1.6h-3.4zm9.8 2h3.4v1.6h-3.4zm15.6 0h3.4v1.6h-3.4zm-27.4 0h3.4v1.6h-3.4zm44.9-2h3.4v1.6h-3.4zm-1.8 2h3.4v1.6h-3.4zm5.9-2h3.4v1.6h-3.4zm7.7 0h3.4v1.6h-3.4zm-9.7 2h3.4v1.6h-3.4zm7.9 0h3.4v1.6h-3.4zm-2-2h3.4v1.6h-3.4zm-2 2h3.4v1.6h-3.4zm-19.6 0h3.4v1.6h-3.4zm4 0h3.4v1.6h-3.4zm-2-2h3.4v1.6h-3.4zm7.8 0h3.4v1.6h-3.4zm-11.6 0h3.4v1.6H137zm9.7 2h3.4v1.6h-3.4zm-2.1-2h3.4v1.6h-3.4zm-44.6-2h3.2v1.6H100zm40.8-2.1h3.4v1.6h-3.4zm3.8 0h3.4v1.6h-3.4zm-1.8 2.1h3.4v1.6h-3.4zm3.9 0h3.4v1.6h-3.4zm1.9-2.1h3.4v1.6h-3.4zm3.8 0h3.4v1.6h-3.4zm-1.8 2.1h3.4v1.6h-3.4zm-23.6 0h3.4v1.6H127zm11.8 0h3.4v1.6h-3.4zm15.7 0h3.4v1.6h-3.4zm-23.4 0h3.4v1.6h-3.4zm-2.1-2.1h3.4v1.6H129zm7.7 0h3.4v1.6h-3.4zm-11.6 0h3.4v1.6h-3.4zm9.8 2.1h3.4v1.6h-3.4zm-2.1-2.1h3.4v1.6h-3.4zm41.2 2.1h3.4v1.6H174zm-2-2.1h3.4v1.6H172zm3.9 0h3.4v1.6h-3.4zm2.1 2.1h3.4v1.6H178zm4 0h3.4v1.6H182zm-2.1-2.1h3.4v1.6h-3.4zm-9.7 2.1h3.4v1.6h-3.4zm-6-2.1h3.4v1.6h-3.4zm3.9 0h3.4v1.6h-3.4zm-9.7 2.1h3.4v1.6h-3.4zm4 0h3.4v1.6h-3.4zm-2-2.1h3.4v1.6h-3.4zm-4 0h3.4v1.6h-3.4zm9.8 2.1h3.4v1.6h-3.4zm-21.6-6.1h3.4v1.6h-3.4zm-21.4 6.1h3.4v1.6h-3.4zm60.5-2.1h3.4v1.6h-3.4zm-70.4 0h3.4v1.6h-3.4zm2.1 2.1h3.4v1.6h-3.4zm-4 0h3.4v1.6h-3.4zm9.8-2.1h3.4v1.6h-3.4zm-11.7 0h3.4v1.6h-3.4zm7.7 0h3.4v1.6h-3.4zm2.1 2.1h3.4v1.6h-3.4zM100 56.8h1.1v1.6H100zm1.7 0h3.4v1.6h-3.4zm5.8 2.1h3.4v1.6h-3.4zm-3.8 0h3.4v1.6h-3.4zm1.8-2.1h3.4v1.6h-3.4zm80.3-2h3.4v1.6h-3.4zm1.9-2h3.4v1.6h-3.4zm-4 0h3.4v1.6h-3.4zm-3.8 0h3.4v1.6h-3.4zm2.1 2h3.4v1.6H182zm-8 0h3.4v1.6H174zm15.7 0h2.4v1.6h-2.4zm-11.7 0h3.4v1.6H178zm7.8 4.1h3.4v1.6h-3.4zm5.8-6.1h.6v1.6h-.6zm-39.2 0h3.4v1.6h-3.4zm2.1 2h3.4v1.6h-3.4zm2-2h3.4v1.6h-3.4zm-7.9 0h3.4v1.6h-3.4zm23.4 0h3.4v1.6H172zm-25.3 2h3.4v1.6h-3.4zm11.7 0h3.4v1.6h-3.4zm-7.8 0h3.4v1.6h-3.4zm15.6 0h3.4v1.6h-3.4zm-5.8-2h3.4v1.6h-3.4zm9.8 2h3.4v1.6h-3.4zm-2.1-2h3.4v1.6h-3.4zm-5.7 2h3.4v1.6h-3.4zm1.8-2h3.4v1.6h-3.4zm25.5 6.1h2.4v1.6h-2.4zm-2-2.1h3.4v1.6h-3.4zm3.9 0h.6v1.6h-.6zm-15.5-4h3.4v1.6h-3.4zm-35.3-8.2h3.4v1.6h-3.4zm3.8 0h3.4v1.6h-3.4zm-5.8 2h3.4v1.6h-3.4zm4 0h3.4v1.6h-3.4zm-10-2h3.4v1.6h-3.4zm2.1 2h3.4v1.6h-3.4zm2.1-2h3.4v1.6H137zm19.5 0h3.4v1.6h-3.4zm-25.4 2h3.4v1.6h-3.4zm15.6 0h3.4v1.6h-3.4zm11.7 0h3.4v1.6h-3.4zm-3.9 0h3.4v1.6h-3.4zm-2.1-2h3.4v1.6h-3.4zm-3.8 0h3.4v1.6h-3.4zm2 2h3.4v1.6h-3.4zm-21.6-2h3.4v1.6H129zm-19.5 0h3.4v1.6h-3.4zm1.9 2h3.4v1.6h-3.4zm4 0h3.4v1.6h-3.4zm-2.1-2h3.4v1.6h-3.4zm-11.6 0h3.4v1.6h-3.4zm3.8 0h3.4v1.6h-3.4zm2 2h3.4v1.6h-3.4zm19.5 0h3.4v1.6H127zm-1.9-2h3.4v1.6h-3.4zm35.3 0h3.4v1.6h-3.4zm-37.2 2h3.4v1.6h-3.4zm-3.9 0h3.4v1.6h-3.4zm1.9-2h3.4v1.6h-3.4zm-3.8 0h3.4v1.6h-3.4zm-13.7 2h3.4v1.6h-3.4zm87.9-2h.6v1.6h-.6zm-25.4 2h3.4v1.6h-3.4zm4 0h3.4v1.6h-3.4zm1.8-2h3.4v1.6H172zm4.1 0h3.4v1.6h-3.4zm-2.1 2h3.4v1.6H174zm-9.8-2h3.4v1.6h-3.4zm3.9 0h3.4v1.6h-3.4zm-5.7 2h3.4v1.6h-3.4zm15.6 0h3.4v1.6H178zm5.7-2h3.4v1.6h-3.4zm6 2h2.4v1.6h-2.4zm-2-2h3.4v1.6h-3.4zm-1.9 2h3.4v1.6h-3.4zm-3.8 0h3.4v1.6H182zm-2.1-2h3.4v1.6h-3.4zm-79.9 2h3.2v1.6H100zm0-2h1.3v1.6H100zm36.7 4h3.4v1.6h-3.4zm6.1 2.1h3.4v1.6h-3.4zm3.9 0h3.4v1.6h-3.4zm15.7 0h3.4v1.6h-3.4zm-29.6-2.1h3.4v1.6h-3.4zm2.1 2.1h3.4v1.6h-3.4zm3.9 0h3.4v1.6h-3.4zm5.8-2.1h3.4v1.6h-3.4zm13.8 2.1h3.4v1.6h-3.4zm-9.8-2.1h3.4v1.6h-3.4zm11.8 0h3.4v1.6h-3.4zm-9.8 2.1h3.4v1.6h-3.4zm1.8-2.1h3.4v1.6h-3.4zm2.1 2.1h3.4v1.6h-3.4zm-13.7-2.1h3.4v1.6h-3.4zm-23.6 0h3.4v1.6h-3.4zm-3.9 0h3.4v1.6h-3.4zm2.1 2.1h3.4v1.6h-3.4zm-4 0h3.4v1.6h-3.4zm-5.9-2.1h3.4v1.6h-3.4zm4 0h3.4v1.6h-3.4zm-2 2.1h3.4v1.6h-3.4zm19.5 0h3.4v1.6H127zm-1.9-2.1h3.4v1.6h-3.4zm6 2.1h3.4v1.6h-3.4zm-2.1-2.1h3.4v1.6H129zm-7.8 0h3.4v1.6h-3.4zm-1.9 2.1h3.4v1.6h-3.4zm3.9 0h3.4v1.6h-3.4zm-19.5 0h3.4v1.6h-3.4zm76.2-2.1h3.4v1.6h-3.4zm-5.9 2.1h3.4v1.6H174zm4 0h3.4v1.6H178zm-2.1-2.1h3.4v1.6h-3.4zm-3.9 0h3.4v1.6H172zm-1.8 2.1h3.4v1.6h-3.4zm-4 0h3.4v1.6h-3.4zm1.9-2.1h3.4v1.6h-3.4zm21.6 2.1h2.4v1.6h-2.4zm-3.9 0h3.4v1.6h-3.4zm1.9-2.1h3.4v1.6h-3.4zm3.9 0h.6v1.6h-.6zm-9.6 2.1h3.4v1.6H182zm-17.8-2.1h3.4v1.6h-3.4zm19.5 0h3.4v1.6h-3.4zm-27.3 0h3.4v1.6h-3.4zm-4 16.4h3.4v.8h-3.4zm-3.8 0h3.4v.8h-3.4zm-4 0h3.4v.8h-3.4zm15.8 0h3.4v.8h-3.4zm7.7 0h3.4v.8h-3.4zm-3.9 0h3.4v.8h-3.4zm-23.4 0h3.4v.8h-3.4zm15.6 0h3.4v.8h-3.4zm-39.2 0h3.4v.8h-3.4zm-3.9 0h3.4v.8h-3.4zm7.9 0h3.4v.8h-3.4zm15.5 0h3.4v.8h-3.4zm-11.6 0h3.4v.8h-3.4zm7.7 0h3.4v.8h-3.4zm-3.8 0h3.4v.8H129zm50.9 0h3.4v.8h-3.4zm-7.9 0h3.4v.8H172zm11.7 0h3.4v.8h-3.4zm-74.2 0h3.4v.8h-3.4zm66.4 0h3.4v.8h-3.4zm15.7 0h.6v.8h-.6zm-3.9 0h3.4v.8h-3.4zm-82.2 0h3.4v.8h-3.4zM100 48.6h1.1v1.6H100zm0 2.1h3.2v1.6H100zm1.7-2.1h3.4v1.6h-3.4zm0 16.4h3.4v.8h-3.4zm-1.7 0h1.1v.8H100z"></path><path fill="#EC407A" d="M98.3 29.4h95.4V44H98.3z"></path><path fill="#FBD9E4" d="M121.9 44h6.7v21.8h-6.7zm13.5 0h6.7v21.8h-6.7zm13.5 0h6.7v21.8h-6.7zm13.5 0h6.7v21.8h-6.7z"></path><path opacity=".2" fill="#C9C9D4" d="M163.7 29.5h-36.4l-13.8 5.9v44.7h64.1V35.4z"></path><path fill="#C1C2CE" d="M172.7 80.1h-54.4V35.4l27.1-13.7 27.3 13.7z"></path><path fill="#F0F0F3" d="M169.2 80.1h-47.4V38.3l23.6-12 23.8 12z"></path><path fill="#B4B4C3" d="M116.9 54.9H174v25.2h-57.1z"></path><path fill="#D7D7DF" d="M121.9 58.7h47.4V80h-47.4z"></path><path fill="#C1C2CE" d="M121.9 58.7h47.4v.8h-47.4z"></path><path fill="#EC407A" d="M133.1 41.9c-.1-.1-.2-.2-.2-.4 0-.3.3-.6.6-.6h.3c.4.3.9.5 1.4.5.5 0 .7-.2.7-.5s-.2-.4-1.1-.6-1.8-.6-1.8-1.6c0-.9.7-1.6 1.6-1.6h.3c.6 0 1.2.2 1.7.5.2.2.2.6 0 .8-.1.1-.2.2-.3.2h-.3c-.3-.2-.7-.3-1.1-.3-.4 0-.6.2-.6.5s.2.5 1.1.7c.9.2 1.7.6 1.7 1.6 0 1.1-.8 1.6-1.9 1.6-.9-.2-1.6-.4-2.1-.8zm4.5-3c0-.3.3-.6.6-.6s.6.3.6.6c.3-.4.8-.7 1.3-.6 1 0 1.9.8 1.9 1.8v.3c.1 1-.6 2-1.6 2.1h-.3c-.5 0-1-.2-1.3-.6v1.2c0 .3-.3.6-.6.6s-.6-.3-.6-.6v-4.2zm3.1 1.5c0-.5-.4-1-1-1s-1 .4-1 1c0 .5.4 1 1 1s1-.5 1-1zm3.6 2.1c-1.1 0-2.1-.8-2.1-1.9v-.2c0-1.1.8-2.1 1.9-2.1h.1c1.1 0 1.9.9 1.9 1.9 0 .3-.1.5-.4.6h-2.5c.1.5.5.8 1 .8.3 0 .6-.1.8-.2h.2c.2 0 .4.2.4.4v.1c0 .1-.1.2-.2.3-.2.2-.6.3-1.1.3zm.7-2.4c0-.5-.4-.9-.9-.9s-.9.4-.9.9h1.8zm3.7 2.4c-1.1 0-2.1-.8-2.1-1.9v-.2c0-1.1.8-2.1 1.9-2.1h.1c1.1 0 1.9.9 1.9 1.9 0 .3-.1.5-.4.6h-2.5c.1.5.5.8 1 .8.3 0 .6-.1.8-.2h.2c.2 0 .4.2.4.4v.1c0 .1-.1.2-.2.3-.2.2-.7.3-1.1.3zm.7-2.4c0-.5-.4-.9-.9-.9s-.9.4-.9.9h1.8zm5.7 1.8c0 .3-.3.6-.6.6s-.6-.3-.6-.6c-.3.4-.8.7-1.3.6-1 0-1.9-.8-1.9-1.8v-.3c-.1-1 .6-2 1.6-2.1h.3c.5 0 1 .2 1.3.6v-1.5c0-.3.3-.6.6-.6s.6.3.6.6v4.5zm-3-1.6c0 .5.4 1 1 1s1-.4 1-1c0-.5-.4-1-1-1s-1 .5-1 1zm4 3.2c-.2-.1-.3-.3-.3-.5 0-.3.2-.5.5-.5h.4c.2 0 .3-.1.4-.2l-1.4-3.2v-.2c0-.3.3-.6.6-.6s.5.2.6.4l.9 2.3.8-2.3c.1-.2.3-.4.6-.4s.6.3.6.6c0 .1 0 .2-.1.2l-1.5 3.4c-.3.8-.6 1.1-1.4 1.1l-.7-.1zm-25.4 4.9l1.9-4.1c.1-.3.4-.5.6-.5h.1c.3 0 .5.2.6.5l1.9 4.1v.2c0 .3-.3.6-.6.6s-.5-.2-.6-.4l-.3-.8H132l-.4.9c-.1.2-.3.3-.6.3s-.6-.3-.6-.6l.3-.2zm3.2-1.5l-.7-1.7-.7 1.7h1.4zm6.1 1.7c0 .3-.3.6-.6.6s-.6-.3-.6-.6c-.3.4-.7.6-1.2.6-.7.1-1.3-.5-1.4-1.2v-2.5c0-.3.3-.6.6-.6s.6.3.6.6v1.7c0 .6.2.8.7.8.5 0 .7-.2.7-.8v-1.7c0-.3.3-.6.6-.6s.6.3.6.6v3.1zm.5-1.5c0-1.2.9-2.1 2.1-2.1.5 0 1 .2 1.4.5.1.1.2.3.2.4 0 .3-.2.5-.5.5h-.3c-.2-.2-.5-.3-.7-.2-.6 0-1 .5-1 1.1 0 .6.4 1.1 1 1.1h.1c.3 0 .5-.1.7-.2h.3c.3 0 .5.2.5.4s-.1.4-.2.5c-.4.3-.9.5-1.5.5-1.1.1-2.1-.8-2.1-1.9v-.6zm4.5.9v-1.9c-.3 0-.5-.2-.5-.5s.2-.5.5-.5v-.5c0-.3.3-.6.6-.6s.6.3.6.6v.5h.5c.3 0 .5.2.5.5s-.2.5-.5.5h-.5v1.8c0 .2.1.4.4.4h.2c.3 0 .5.2.5.5 0 .2-.1.3-.3.4h-.6c-1 0-1.4-.2-1.4-1.2zm2.5-3.9c0-.4.3-.6.6-.6.4 0 .6.3.6.6 0 .4-.3.6-.6.6-.3.1-.6-.2-.6-.6zm.1 1.5c0-.3.3-.6.6-.6s.6.3.6.6v3.1c0 .3-.3.6-.6.6s-.6-.3-.6-.6v-3.1zm1.8 1.5c0-1.2 1-2.2 2.2-2.2 1.2 0 2.2 1 2.2 2.2 0 1.2-1 2.2-2.2 2.2-1.2 0-2.2-1-2.2-2.2zm3.2 0c0-.6-.4-1.1-1-1.1h-.1c-.6 0-1.1.5-1.1 1v.1c0 .6.4 1.1 1 1.1h.1c.7 0 1.1-.4 1.1-1.1zm1.7-1.5c0-.3.3-.6.6-.6s.6.3.6.6c.3-.4.7-.6 1.2-.6.7-.1 1.3.5 1.4 1.2v2.5c0 .3-.3.6-.6.6s-.6-.3-.6-.6v-1.8c0-.6-.2-.8-.7-.8s-.7.2-.7.8v1.8c0 .3-.3.6-.6.6s-.6-.3-.6-.6v-3.1zm4.3 3.1c-.1-.1-.2-.2-.2-.4-.1-.2.1-.4.3-.5h.4c.3.2.7.3 1.1.3.3 0 .5-.1.5-.3 0-.2-.4-.3-.8-.5s-1.2-.4-1.2-1.2c0-.7.6-1.3 1.3-1.3h.2c.4 0 .8.1 1.2.3.1.1.2.2.2.4 0 .3-.2.5-.5.5h-.2l-.9-.2c-.2 0-.4.1-.4.2 0 .2.4.3.8.5s1.2.5 1.2 1.2c0 .9-.6 1.3-1.5 1.3-.6.1-1.1-.1-1.5-.3z"></path><path fill="#D8D9E0" d="M145.4 26.3l-23.6 12v1.5l23.6-12.1 23.8 12.1v-1.5z"></path><path fill="#B2B2C1" d="M165 71.3h-.2l-1.3-5.2v-.4c-.1-.4-.5-.7-.9-.7h-11.1c-.4 0-.8.3-.9.7v.4l-1.4 5.2h-.2c-.6 0-1.1.5-1.1 1.1v4.4c0 .6.5 1.1 1.1 1.1h.7v2.2h2.2v-2.2h10.7v2.2h2.2v-2.2h.4c.6 0 1.1-.5 1.1-1.1v-4.4c-.1-.6-.6-1.1-1.3-1.1z"></path><ellipse fill="#B2B2C1" cx="166" cy="70.1" rx=".9" ry=".7"></ellipse><ellipse fill="#B2B2C1" cx="147.9" cy="70.1" rx=".9" ry=".7"></ellipse><path fill="#B2B2C1" d="M141.9 71.3h-.2l-1.3-5.2v-.4c-.1-.4-.5-.7-.9-.7h-11.1c-.4 0-.8.3-.9.7v.4l-1.4 5.2h-.2c-.6 0-1.1.5-1.1 1.1v4.4c0 .6.5 1.1 1.1 1.1h.7v2.2h2.2v-2.2h10.6v2.2h2.2v-2.2h.4c.6 0 1.1-.5 1.1-1.1v-4.4c-.1-.6-.6-1.1-1.2-1.1z"></path><ellipse fill="#B2B2C1" cx="142.8" cy="70.1" rx=".9" ry=".7"></ellipse><ellipse fill="#B2B2C1" cx="124.8" cy="70.1" rx=".9" ry=".7"></ellipse><circle fill="#B4B4C3" cx="133.8" cy="57" r="3.2"></circle><path fill="#C6C6D1" d="M133.8 54.6c1.3 0 2.3 1 2.3 2.3 0 1.3-1 2.3-2.3 2.3s-2.3-1-2.3-2.3c0-1.2 1-2.3 2.3-2.3m0-1.6c-2.2 0-4 1.8-4 4s1.8 4 4 4 4-1.8 4-4-1.8-4-4-4z"></path><path fill="#fff" d="M134.3 55.3h.2c.1.1.1.2.1.2v1.2h.6l.2.2c0 .1 0 .2-.1.3l-1.4 1.4h-.4l-1.4-1.4c-.1-.1-.1-.2-.1-.3l.2-.2h.6v-1.1c0-.1 0-.2.1-.2l1.4-.1z"></path><circle fill="#B4B4C3" cx="157.6" cy="57" r="3.2"></circle><path fill="#C6C6D1" d="M157.6 54.6c1.3 0 2.3 1 2.3 2.3 0 1.3-1 2.3-2.3 2.3-1.3 0-2.3-1-2.3-2.3 0-1.2 1-2.3 2.3-2.3m0-1.6c-2.2 0-4 1.8-4 4s1.8 4 4 4 4-1.8 4-4-1.8-4-4-4z"></path><path fill="#fff" d="M157.1 58.7h-.2c-.1-.1-.1-.2-.1-.2v-1.3h-.6l-.2-.2c0-.1 0-.2.1-.3l1.4-1.4h.4l1.4 1.4c.1.1.1.2.1.3l-.2.2h-.6v1.2c0 .1 0 .2-.1.2l-1.4.1z"></path></svg>