<svg xmlns="http://www.w3.org/2000/svg" xmlns:xlink="http://www.w3.org/1999/xlink" width="293.1" height="80" viewBox="0 0 293.1 80"><title>fleet-leasing</title><path fill="#E8E8ED" d="M78.1 53.1v1.2h17.6V38.9c0-7 5.6-12.6 12.6-12.6v12.6c0-7 5.6-12.6 12.6-12.6v12.8L134.8 53l1.3-1.3h3.5l1.8-1.8 1.8 1.8 1.8-1.8 1.8 1.8 1.8-1.8 1.8 1.8 1.8-1.8 1.8 1.8V33.5h2.5v4.2c3.9-4.9 11.1-5.6 15.9-1.7 2.6 2.1 4.2 5.3 4.2 8.7v8.6l2.5.5v-.6c0-2.4 2-4.3 4.3-4.2 2.3 0 4.2 1.9 4.2 4.2v.3l9.6-4.6v4.6l2.1 1.3v21.8H78.2"></path><path fill="#E0E0E6" d="M121.9 76.5v.1h-1v-1.2l1.2 1.1zm10.7 0l-11.7-11.6v-1.2l12.9 12.8zm-7 0l-4.7-4.6v-1.2l5.9 5.8zm4.7 0l-9.4-9.3v-1.1l10.5 10.4zm-7 0l-2.4-2.3V73l3.5 3.5zm4.6 0l-7-7v-1.1l8.2 8.1zm7.3-20.7l-14.3-14.2v-1.2l14.3 14.3zm0 2.4l-14.3-14.3v-1.2L135.2 57zm0 4.6l-14.3-14.2v-1.2l14.3 14.2zm0 11.7l-14.3-14.3v-1.1l14.3 14.2zm0 2h-.3l-14-13.9v-1.2l14.3 14.2zm0-16l-14.3-14.3v-1.1l14.3 14.2zm0 11.6l-14.3-14.2v-1.2L135.2 71zm0-7l-14.3-14.2v-1.2L135.2 64zm0 4.7l-14.3-14.2v-1.2l14.3 14.2zm0-2.3l-14.3-14.3v-1.1l14.3 14.2zm40.9-14.2h2.8v23.3h-2.8zM197 76.6h-9.5V53.5l9.5-4.6z"></path><circle fill="#E0E0E6" cx="183.2" cy="53.4" r="3.1"></circle><path fill="#E0E0E6" d="M181.3 57.9h3.9c.7.1 1.2.7 1.1 1.4-.1.6-.5 1.1-1.1 1.1h-3.9c-.7 0-1.3-.6-1.3-1.3 0-.6.6-1.2 1.3-1.2zm0 3.6h3.9c.7.1 1.2.7 1.1 1.4-.1.6-.5 1.1-1.1 1.1h-3.9c-.7 0-1.3-.6-1.3-1.3s.6-1.2 1.3-1.2zm0 3.5h3.9c.7.1 1.2.7 1.1 1.4-.1.6-.5 1.1-1.1 1.1h-3.9c-.7 0-1.3-.6-1.3-1.3 0-.7.6-1.2 1.3-1.2zm0 3.5h3.9c.7.1 1.2.7 1.1 1.4-.1.6-.5 1.1-1.1 1.1h-3.9c-.7 0-1.3-.6-1.3-1.3 0-.6.6-1.2 1.3-1.2zM78.1 53.3h17.6v23.3H78.1zm44.1-12.9l-1.3-1.3V26.3l1.3 1.2zm43.7 5.4h2.7v2.7h-2.7zm-4.6 0h2.7v2.7h-2.7zm-4.6 0h2.7v2.7h-2.7zm13.8 4.4h2.7v2.7h-2.7zm-9.2 0h2.7v2.7h-2.7zm-4.6 0h2.7v2.7h-2.7zm13.8 4.4h2.7v2.7h-2.7zm-4.6 0h2.7v2.7h-2.7zm-4.6 0h2.7v2.7h-2.7zm9.2 4.3h2.7v2.7h-2.7zm-4.6 0h2.7v2.7h-2.7zm-4.6 0h2.7v2.7h-2.7zm-4.6 0h2.7v2.7h-2.7zm13.8 4.4h2.7V66h-2.7zm-4.6 0h2.7V66h-2.7zm-9.2 0h2.7V66h-2.7zm9.2 4.2h2.7v2.7h-2.7zm-4.6 0h2.7v2.7h-2.7zm-4.6 0h2.7v2.7h-2.7zm8.3-30.9c3.9 0 7.3 2.6 8.2 6.4-5.4-1.3-11.1-1.3-16.5.1.9-3.8 4.3-6.5 8.3-6.5z"></path><circle fill="#E0E0E6" cx="150.2" cy="55.7" r=".9"></circle><circle fill="#E0E0E6" cx="146.6" cy="55.7" r=".9"></circle><circle fill="#E0E0E6" cx="143.1" cy="55.7" r=".9"></circle><circle fill="#E0E0E6" cx="139.6" cy="55.7" r=".9"></circle><circle fill="#E0E0E6" cx="150.2" cy="60.2" r=".9"></circle><circle fill="#E0E0E6" cx="146.6" cy="60.2" r=".9"></circle><circle fill="#E0E0E6" cx="143.1" cy="60.2" r=".9"></circle><circle fill="#E0E0E6" cx="139.6" cy="60.2" r=".9"></circle><circle fill="#E0E0E6" cx="150.2" cy="64.7" r=".9"></circle><circle fill="#E0E0E6" cx="146.6" cy="64.7" r=".9"></circle><circle fill="#E0E0E6" cx="143.1" cy="64.7" r=".9"></circle><circle fill="#E0E0E6" cx="139.6" cy="64.7" r=".9"></circle><circle fill="#E0E0E6" cx="150.2" cy="69.2" r=".9"></circle><circle fill="#E0E0E6" cx="146.6" cy="69.2" r=".9"></circle><circle fill="#E0E0E6" cx="143.1" cy="69.2" r=".9"></circle><circle fill="#E0E0E6" cx="139.6" cy="69.2" r=".9"></circle><path fill="#E0E0E6" d="M103.9 43.1l-4.3-4.3h4.3zm0 6.3l-4.3-4.3h4.3zm0 6.3l-4.3-4.3h4.3zm0 6.3l-4.3-4.3h4.3zm0 6.3L99.6 64h4.3zm0 6.3l-4.3-4.3h4.3zm5.7 2h-1.3V26.3l1.3 1.2zm7.3-33.5l-4.3-4.3h4.3zm0 6.3l-4.3-4.3h4.3zm0 6.3l-4.3-4.3h4.3zm0 6.3l-4.3-4.3h4.3zm0 6.3l-4.3-4.3h4.3zm0 6.3l-4.3-4.3h4.3z"></path><path fill="#E8E8ED" d="M194.1 57.4h1v1h-1zm0 2h1v1h-1zm0 2h1v1h-1zm0 2.1h1v1h-1zm0 2h1v1h-1zm0 2h1v1h-1zm0 2h1v1h-1zm0 2h1v1h-1zm-2.2-14.1h1v1h-1zm0 2h1v1h-1zm0 2h1v1h-1zm0 2.1h1v1h-1zm0 2h1v1h-1zm0 2h1v1h-1zm0 2h1v1h-1zm0 2h1v1h-1zm-2.3-14.1h1v1h-1zm0 2h1v1h-1zm4.5-4h1v1h-1zm-2.2 0h1v1h-1zm-2.3 0h1v1h-1zm0 6h1v1h-1zm0 2.1h1v1h-1zm0 2h1v1h-1zm0 2h1v1h-1zm0 2h1v1h-1zm0 2h1v1h-1zM90.9 56.4h1.9v3.9h-1.9zm0 7.1h1.9v3.9h-1.9zm0 7.2h1.9v3.9h-1.9zm-6.6-14.3h1.9v3.9h-1.9zm0 7.1h1.9v3.9h-1.9zM81 56.4h1.9v3.9H81zm0 7.1h1.9v3.9H81zm116 13.1V51.5h14.5l2.1 2-2.1 23.1"></path><path fill="#E0E0E6" d="M213.6 76.6h-2.1V51.5l2.1 2zm-14-22.1h9.7v.5h-9.7zm0 1.2h9.7v.5h-9.7zm0 1.2h9.7v.5h-9.7zm0 1.3h9.7v.5h-9.7zm0 1.2h9.7v.5h-9.7zm0 1.2h9.7v.5h-9.7zm0 1.2h9.7v.5h-9.7zm0 1.3h9.7v.5h-9.7zm0 1.2h9.7v.5h-9.7zm0 1.2h9.7v.5h-9.7zm0 1.2h9.7v.5h-9.7zm0 1.2h9.7v.5h-9.7zm0 1.3h9.7v.5h-9.7zm0 1.2h9.7v.5h-9.7zm0 1.2h9.7v.5h-9.7z"></path><path fill="#C3C3CF" d="M146.4 25.1h4.3V80h-4.3z"></path><path fill="#BABAC8" d="M146.4 25.1h2.1V80h-2.1z"></path><path fill="#F8DA8E" d="M174.5 62H199v18h-24.5z"></path><path fill="#84859D" d="M178.3 56.5h1.1v1.3h-1.1z"></path><path fill="#A3A3B5" d="M146.4 28.4h4.3v1.3h-4.3z"></path><path fill="#fff" d="M173.4 33.1h26.7v40.1h-26.7z"></path><path fill="#F6CB61" d="M199.2 34v38.2h-24.9V34h24.9m1.8-1.8h-28.5v41.9H201V32.2z"></path><path fill="#fff" d="M103.3 1.4h90.4V27h-90.4z"></path><path fill="#FAE1A5" d="M192.4 2.8v22.9h-87.7V2.8h87.7m2.7-2.8H102v28.4h93.2V0z"></path><path fill="#A3A3B5" d="M91.7 37h1.1v43h-1.1zm44.2 0h1.1v43h-1.1z"></path><path fill="#84859D" d="M91.7 64.4h1.1v1.3h-1.1zm44.2 0h1.1v1.3h-1.1z"></path><path fill="#fff" d="M89.1 38h50.6v25H89.1z"></path><path fill="#F2B51D" d="M138.3 39.4v22.2H90.4V39.4h47.9m2.7-2.8H87.7v27.7H141V36.6z"></path><path fill="#747590" d="M92.3 37c-.2 0-.3-.1-.3-.3V35c0-.2.1-.3.3-.3s.3.1.3.3v1.7c0 .1-.2.3-.3.3z"></path><path fill="#84859D" d="M92.2 35.8c-1 0-1.9.8-1.9 1.9H94c.1-1.1-.7-1.9-1.8-1.9z"></path><path fill="#747590" d="M107 37c-.2 0-.3-.1-.3-.3V35c0-.2.1-.3.3-.3.2 0 .3.1.3.3v1.7c0 .1-.1.3-.3.3z"></path><path fill="#84859D" d="M107 35.8c-1 0-1.9.8-1.9 1.9h3.7c0-1.1-.8-1.9-1.8-1.9z"></path><path fill="#747590" d="M121.7 37c-.2 0-.3-.1-.3-.3V35c0-.2.1-.3.3-.3.2 0 .3.1.3.3v1.7c0 .1-.1.3-.3.3z"></path><path fill="#84859D" d="M121.7 35.8c-1 0-1.9.8-1.9 1.9h3.7c.1-1.1-.8-1.9-1.8-1.9z"></path><path fill="#747590" d="M136.5 37c-.2 0-.3-.1-.3-.3V35c0-.2.1-.3.3-.3s.3.1.3.3v1.7c0 .1-.2.3-.3.3z"></path><path fill="#84859D" d="M136.4 35.8c-1 0-1.9.8-1.9 1.9h3.7c.1-1.1-.7-1.9-1.8-1.9z"></path><path fill="#141013" d="M125.8 46.3c.7-.5 1.6-.7 2.5-.6.8 0 1.5.3 2 .9.5.7.6 1.5.4 2.3-.2.6-.5 1.2-1 1.6-.4.2-.7.5-.9.9-.1.4-.1.8-.1 1.2h-1.9c-.1-.6 0-1.2.2-1.8.2-.4.6-.8.9-1l.6-.6c.3-.3.4-.8.2-1.2-.2-.3-.6-.5-1-.5-.7 0-1.3 0-1.9.2v-1.4zM127 53c.1 0 .2-.1.4 0h1c.2 0 .4.2.4.4v.7c0 .1 0 .3-.1.4-.1.1-.2.2-.4.2h-1.1c-.2 0-.4-.2-.5-.4v-.8c0-.3.1-.4.3-.5z"></path><path fill="#E30613" d="M97.3 46.5h2c.3 1.6.6 3.2 1 4.8l1.1-4.8h1c.2 0 .4 0 .6.2.2.2.3.4.3.6l.8 3.4c0 .2.1.4.1.5.3-1.6.6-3.2.9-4.7h1.9l-1.9 8.1h-1.6c-.4-1.5-.8-3.1-1.3-4.6l-1.2 4.6h-1.7l-2-8.1zm10 0h1.2c.2 0 .3 0 .5.2.1.1.2.3.2.5v1.7c.7-.5 1.5-.7 2.3-.5.4 0 .8.3 1 .6.2.4.3.9.2 1.3v4.3h-1.8v-4.2c0-.2 0-.3-.1-.4-.1-.1-.2-.2-.4-.1-.4 0-.8 0-1.2.2v4.6h-1.8c-.1-2.8-.1-5.5-.1-8.2zm6.2 0h1.3c.2 0 .4.2.4.4v.7c0 .2-.2.4-.4.4h-1.2c-.2 0-.4-.2-.4-.4v-.7c-.1-.2.1-.3.3-.4zm7.2 0h1.2c.2 0 .3 0 .5.2.1.1.2.3.2.5v1.7c.6-.4 1.4-.6 2.1-.6.4 0 .9.2 1.2.5.2.4.3.9.3 1.4v4.4h-1.9v-4.3c0-.2-.1-.4-.3-.5-.5 0-.9 0-1.4.1v4.6h-1.8c-.1-2.6-.1-5.3-.1-8zm-4.4 2.7c.6-.6 1.4-.8 2.3-.8.6 0 1.2.2 1.7.5v1.2c-.6-.1-1.1-.2-1.7-.1-.4 0-.7.2-.9.5-.3.4-.3.9-.3 1.4 0 .4.2.9.6 1.1.3.2.7.3 1 .3.5 0 .9-.1 1.4-.2v1.2c-.5.4-1.1.5-1.7.5-.8.1-1.6-.2-2.3-.8-1.2-1.4-1.2-3.4-.1-4.8zm-3.1-.7h1.8v6.1h-1.8v-6.1z"></path><path fill="#0B50A1" d="M124.2 14.1h-.9v3.7h-2.4V7.5h3.5c1.8 0 3.2.8 3.2 3.2-.1 2.4-1.5 3.4-3.4 3.4zm-.1-4.6h-.8v2.6h.8c.7 0 1-.4 1-1.3 0-1-.3-1.3-1-1.3zm8.8 8.3l-.4-1.9h-2l-.4 1.9h-2.5l2.7-10.3h2.5l2.7 10.3h-2.6zm-.9-4.3l-.6-3.4c-.1.9-.3 2.1-.5 3.4l-.1.3h1.2v-.3zm8.9 4.3l-1.2-3.9h-.7v3.9h-2.4V7.5h3.6c1.9 0 3.2.8 3.2 3.1.1 1.1-.4 2.1-1.4 2.7l1.5 4.5h-2.6zm-.9-8.4h-1V12h.9c.7 0 1-.4 1-1.3s-.2-1.3-.9-1.3zm9.6 8.4l-1.5-4.3-.6.9v3.4H145V7.5h2.5v3.8c.3-.8.9-1.9 1.3-2.7l.6-1.1h2.8l-2.2 3.7 2.4 6.6h-2.8zm3.9 0V7.5h6v2.1h-3.6v1.8h2.3v2.1h-2.3v2.2h3.7v2.1h-6.1zm11.9 0l-1.2-3.9h-.7v3.9h-2.4V7.5h3.6c1.9 0 3.2.8 3.2 3.1.1 1.1-.4 2.1-1.4 2.7l1.5 4.5h-2.6zm-.9-8.4h-1V12h.9c.7 0 1-.4 1-1.3s-.2-1.3-.9-1.3zm8 8.6c-1.4 0-2.7-.6-3.4-1.8l1.7-1.5c.7.8 1.3 1.3 1.8 1.3.4.1.8-.2.9-.7v-.2c0-.6-.2-.9-1.3-1.4-2-.9-2.8-1.7-2.8-3.3 0-1.6 1.3-3 2.9-3h.3c1.3-.1 2.5.6 3.2 1.6l-1.7 1.5c-.7-.8-1-1.1-1.6-1.1-.4 0-.7.3-.7.7 0 .5.3.9 1.3 1.3 2.1.9 2.8 1.8 2.8 3.5 0 2-1.5 3.1-3.4 3.1z"></path><path fill="#3F4040" d="M120.9 19.1h1.8v.3h-1.4v.5h1.2v.3h-1.2v.8h-.4v-1.9zm2 1c0-.1 0-.3.1-.4 0-.1.1-.2.2-.3.1-.1.2-.2.4-.2.4-.1.7-.1 1.1 0l.4.2c.1.1.2.2.2.3l.1.4c0 .1 0 .2-.1.3 0 .1-.1.2-.2.3-.1.1-.2.2-.4.3-.4.1-.8.1-1.1 0-.1-.1-.3-.1-.4-.3l-.2-.3-.1-.3zm1.2.7h.3l.3-.1.2-.2c.1-.2.1-.4 0-.6 0-.1-.1-.2-.2-.2-.1-.1-.2-.1-.2-.1-.2-.1-.4-.1-.6 0-.1 0-.2.1-.2.1l-.2.2c-.1.2-.1.4 0 .6 0 .1.1.2.2.2.1.1.2.1.3.1h.1zm1.6-1.7h1.5c.1 0 .2 0 .3.1.1 0 .1.1.2.2l.1.3v.2l-.1.2-.2.1h-.2l.6.8h-.5l-.6-.8h-.6v.8h-.4l-.1-1.9zm1.1.8h.3s.1 0 .1-.1v-.2l-.1-.1h-1v.6l.7-.2zm3-.5h-.8v-.3h2.1v.3h-.9V21h-.4v-1.6zm1.7-.3h.4v.8h1.3v-.8h.4v2h-.4v-.8h-1.3v.7h-.4v-1.9zm2.6 0h1.8v.3h-1.4v.5h1.2v.3h-1.2v.5h1.4v.3h-1.8v-1.9zm4.8.6s0-.1-.1-.1l-.1-.1-.2-.1h-.7s-.1 0-.1.1v.2l.1.1s.1 0 .1.1h.2l.5.1c.1 0 .2 0 .3.1.1 0 .2.1.2.1.1 0 .1.1.1.2v.2c0 .1 0 .2-.1.3l-.2.2c-.1.1-.2.1-.3.1h-.4c-.2 0-.3 0-.5-.1-.1 0-.2-.1-.3-.2-.1 0-.1-.1-.2-.2 0 0-.1-.1-.1-.2l.4-.1s0 .1.1.1l.1.1.2.1h.5c.1 0 .1 0 .2-.1 0 0 .1 0 .1-.1v-.1c0-.1-.1-.2-.4-.2l-.5-.1c-.2 0-.4-.1-.5-.2-.1-.1-.2-.2-.2-.4 0-.1 0-.2.1-.2l.1-.2.2-.1c.1 0 .1 0 .2-.1h.3c.2 0 .3 0 .5.1l.3.1c.1 0 .1.1.2.2 0 0 0 .1.1.1l-.2.3zm1.1-.1v1.5h-.3v-2h.5l.6 1.4.6-1.4h.5v2h-.3v-1.5L141 21h-.3l-.7-1.4zm3.2-.5h.4l.9 2h-.4l-.2-.4h-1.1l-.2.4h-.4l1-2zm.7 1.2l-.4-.9-.4.9h.8zm1.1-1.2h1.5c.1 0 .2 0 .3.1.1 0 .1.1.2.2l.1.3v.2l-.1.2-.2.1h-.2l.4.8h-.5l-.6-.8h-.6v.8h-.3v-1.9zm1.1.8h.3s.1 0 .1-.1v-.2l-.1-.1h-1v.6l.7-.2zm2-.5h-.9v-.3h2.1v.3h-.9V21h-.4v-1.6zm1.7-.3h1.8v.3h-1.4v.5h1.2v.3h-1.2v.5h1.4v.3h-1.8v-1.9zm2.2 0h1.5c.1 0 .2 0 .3.1.1 0 .1.1.2.2l.1.3v.2l-.1.2-.2.1h-.2l.4.8h-.5l-.6-.8h-.6v.8h-.3v-1.9zm1.1.8h.3s.1 0 .1-.1v-.2l-.1-.1h-1v.6l.7-.2zm4.5.4v.1c0 .1 0 .1-.1.2l-.1.2c-.1.1-.1.1-.2.1l-.3.1h-.4c-.1 0-.3 0-.4-.1-.1 0-.2-.1-.4-.2-.1-.1-.2-.2-.2-.3-.1-.1-.1-.3-.1-.5 0-.1 0-.3.1-.4 0-.1.1-.2.2-.3.1-.1.2-.2.4-.2.2-.1.3-.1.5-.1h.4l.3.1.2.1s.1.1.1.2c0 0 0 .1.1.1v.1h-.4v-.1l-.1-.1-.2-.1h-.3c-.1 0-.2 0-.3.1-.1 0-.2.1-.2.1-.1.1-.1.1-.1.2v.3c0 .1 0 .2.1.3 0 .1.1.2.2.2.1.1.1.1.2.1h.6l.2-.1c.1 0 .1-.1.1-.1s0-.1.1-.1v.1zm1.2-1.2h.4l.9 2h-.4l-.2-.4h-1.1l-.2.4h-.4l1-2zm.6 1.2l-.4-.9-.4.9h.8zm1.1-1.2h1.5c.1 0 .2 0 .3.1.1 0 .1.1.2.2l.1.3v.2l-.1.2-.2.1h-.2l.6.8h-.7l-.6-.8h-.6v.8h-.4l.1-1.9zm1.1.8h.3s.1 0 .1-.1v-.2l-.1-.1h-1v.6l.7-.2zm2.4-.8h1.5c.1 0 .2 0 .2.1.1 0 .1.1.2.2 0 .1.1.2.1.2v.2s0 .1-.1.1c0 0 0 .1-.1.1 0 0-.1 0-.1.1 0 0 .1 0 .1.1l.1.1.1.1v.2c0 .2-.1.3-.2.4-.2.1-.4.2-.6.1H164v-2zm1.3.7c.1 0 .2 0 .3-.1.1 0 .1-.1.1-.2s0-.1-.1-.2l-.3-.1h-.8v.5l.8.1zm0 .9h.3s.1 0 .1-.1v-.1c0-.1 0-.2-.1-.2l-.3-.1h-.8v.6l.8-.1zm3.3-.5c0 .1 0 .3-.1.4 0 .1-.1.2-.2.3l-.3.2c-.3.1-.6.1-.9 0-.1 0-.2-.1-.3-.2-.1-.1-.2-.2-.2-.3-.1-.1-.1-.3-.1-.4v-1.1h.4v1.3l.1.2c.1.1.1.1.2.1.2.1.4.1.7 0l.2-.1.1-.2v-1.3h.4v1.1zm1.3 0l-1-1.2h.5l.7.8.7-.8h.5l-1 1.2v.8h-.4v-.8zm1.7-1.1h1.8v.3H172v.5h1.2v.3H172v.5h1.4v.3h-1.8v-1.9zm2.2 0h1.5c.1 0 .2 0 .3.1.1 0 .1.1.2.2l.1.3v.2l-.1.2-.2.1h-.2l.6.8h-.5l-.6-.8h-.6v.8h-.4l-.1-1.9zm1.2.8h.3s.1 0 .1-.1v-.2l-.1-.1h-1v.6l.7-.2z"></path><path fill="#F5C44A" d="M101 26.3h95v2.3h-95z"></path><path fill="#72BF44" d="M189.7 46.2c-3.5 0-6.3 2.8-6.3 6.3h.5c0-3.2 2.6-5.9 5.9-5.9 3.2 0 5.9 2.6 5.9 5.9h.5c-.1-3.5-3-6.3-6.5-6.3m0 .9c-3 0-5.5 2.4-5.5 5.5h.5c0-2.8 2.2-5 5-5s5 2.2 5 5h.5c0-3.1-2.4-5.5-5.5-5.5m0 .8c-2.5 0-4.6 2.1-4.6 4.6h.5c0-2.3 1.9-4.1 4.1-4.1 2.3 0 4.1 1.9 4.1 4.1h.5c0-2.5-2-4.6-4.6-4.6m0 .9c-2.1 0-3.7 1.7-3.7 3.7h.5c0-1.8 1.5-3.3 3.3-3.3s3.3 1.5 3.3 3.3h.5c-.1-2-1.8-3.7-3.9-3.7m0 .8c-1.6 0-2.9 1.3-2.9 2.9h.5c0-1.3 1.1-2.4 2.4-2.4 1.3 0 2.4 1.1 2.4 2.4h.5c0-1.6-1.3-2.9-2.9-2.9"></path><path d="M178.3 55.1c0 .3.2.5.4.5h.2v-.2h-.1c-.1 0-.3-.1-.3-.2v-.7h.3v-.2h-.3v-.4h-.3v.4h-.2v.2h.2l.1.6zm.9-1v1.6h.3v-.9c0-.2.2-.3.4-.3s.3.1.3.3v.6c0 .1.1.2.2.2h.3v-.2h-.2v-.6c0-.3-.1-.5-.5-.5-.2 0-.4.1-.5.3V54c0-.1-.1-.2-.2-.2h-.3v.2l.2.1m2.1 1.6c.2 0 .4-.1.5-.2l-.1-.2c-.1.1-.2.2-.4.2s-.5-.2-.5-.4h1V55c0-.3-.2-.6-.5-.6h-.1c-.4 0-.7.3-.7.6v.1c.1.2.4.6.8.6m0-1.2c.2 0 .3.1.3.3h-.7c0-.2.2-.3.4-.3M184.2 54.6s0-.1.1-.2c0 .1 0 .2-.1.2l.1.8c0 .1 0 .2.2.2h.3v-.3h-.1l-.1-1.5h-.4l-.4.9-.1.2c0-.1 0-.1-.1-.2l-.4-.9h-.4l-.1 1.5h-.1v.3h.3c.1 0 .2-.1.2-.2l.1-.8v-.2c0 .1 0 .1.1.2l.3.7h.3l.3-.7zm1.5-.4c-.4 0-.7.4-.7.8s.4.7.8.7.7-.3.7-.7c-.1-.4-.4-.8-.8-.8m0 1.2c-.2 0-.4-.2-.4-.4s.2-.4.4-.4.4.2.4.4-.2.3-.4.4m1.7-.8c.1 0 .2.1.2.3v.6c0 .1.1.2.2.2h.3v-.3h-.1v-.5c0-.4-.2-.5-.5-.5-.2 0-.3.1-.5.2 0-.1-.1-.2-.2-.2h-.3v.3h.1v1h.4v-.9c.1-.1.2-.2.4-.2M188.9 55.7c.2 0 .4-.1.6-.2l-.2-.3c-.1.1-.2.1-.4.1s-.4-.1-.4-.3h.9v-.1c0-.3-.2-.6-.5-.7h-.1c-.4 0-.7.3-.7.7v.1c0 .4.4.7.8.7m-.3-.9c0-.1.2-.2.3-.2.1 0 .2.1.2.2h-.5zm1.2 1.1c-.1 0-.1 0-.2-.1l-.2.3c.1.1.2.1.4.1s.4-.1.5-.4l.5-1.2h.2v-.3h-.2c-.1 0-.2.1-.2.1l-.2.7v.1-.1l-.3-.7c0-.1-.1-.2-.2-.1h-.2v.3h.2l.4 1v.1l-.5.2m-10 1.7l-.6-1.5h-.4l-.6 1.5h-.2v.4h.2c.1 0 .2-.1.2-.2l.1-.3h.6l.1.3c0 .1.1.2.2.2h.2v-.3l.2-.1m-.8-1c0 .1 0 .1.1.2l.2.4h-.4l.2-.4c-.1-.1-.1-.2-.1-.2m2.3 1.1v-1.4c0-.1-.1-.2-.1-.2h-.4v.3h.1v.3c-.1-.1-.2-.1-.4-.1-.4 0-.6.3-.6.7v.1c0 .4.2.7.6.7h.1c.2 0 .3-.1.4-.2 0 .1 0 .1.2.1h.3v-.3h-.2m-.7 0c-.2 0-.3-.2-.3-.4s.1-.4.3-.4c.2 0 .3.2.3.4 0 .3-.1.4-.3.4m1.8-.9l-.3.7v.1-.1l-.3-.7c0-.1-.1-.2-.2-.1h-.2v.3h.2l.4 1h.4l.4-1h.2v-.3h-.2c-.3-.1-.4 0-.4.1m1.1.9v-.8c0-.1-.1-.2-.2-.2h-.3v.3h.1v.8c0 .1.1.2.2.2h.3v-.3h-.1M183.1 56.1h.3v.4h-.3zm1.7 1.4c-.1.1-.2.2-.4.2s-.4-.2-.4-.4.2-.4.4-.4c.1 0 .2 0 .2.1v.1h.3v-.2c0-.2-.3-.3-.5-.3-.4 0-.7.3-.8.7 0 .4.3.7.7.8h.1c.2 0 .4-.1.6-.3l-.2-.3zm1-.9c-.4 0-.7.3-.7.7v.1c0 .4.3.7.7.7.2 0 .4-.1.6-.2l-.2-.3c-.1.1-.2.1-.4.1s-.4-.1-.4-.3h.9v-.1c.1-.4-.1-.7-.5-.7m0 .3c.1 0 .2.1.2.2h-.5c0-.1.1-.2.3-.2m2.1 0c-.2-.1-.3-.1-.3-.3 0-.1.1-.2.3-.2.1 0 .2 0 .2.1v.1h.4v-.2c0-.3-.4-.4-.6-.4-.3 0-.6.2-.6.5s.3.5.6.6c.2.1.3.2.3.3 0 .1-.1.2-.2.2-.2 0-.3-.1-.4-.2l-.2.3c.2.2.4.3.7.3.3 0 .6-.2.6-.5-.2-.4-.5-.5-.8-.6m1.4-.3c-.4 0-.7.3-.7.7v.1c0 .4.3.7.7.7.2 0 .4-.1.6-.2l-.2-.3c-.1.1-.2.1-.4.1s-.4-.1-.4-.3h.9v-.1c.2-.4-.1-.7-.5-.7m0 .3c.1 0 .2.1.2.2h-.5c0-.1.2-.2.3-.2m1.6-.3c-.2 0-.3.1-.4.3v-.1c0-.1-.1-.2-.2-.2h-.3v.4h.1v1h.4v-.8c0-.2.2-.3.3-.3h.1v-.3m1.2.2l-.3.7v.1-.1l-.3-.7c0-.1-.1-.2-.2-.1h-.2v.3h.2l.4 1h.4l.4-1h.2v-.3h-.2c-.3-.1-.4 0-.4.1M192.8 56.1h.3v.4h-.3zm.4 1.6v-.8c0-.1-.1-.2-.2-.2h-.3v.3h.1v.8c0 .1.1.2.2.2h.3v-.3h-.1M194.5 57.5c-.1.1-.2.2-.4.2s-.4-.2-.4-.4.2-.4.4-.4c.1 0 .2 0 .2.1v.1h.3v-.2c0-.2-.3-.3-.5-.3-.4 0-.7.3-.8.7 0 .4.3.7.7.8h.1c.2 0 .4-.1.6-.3l-.2-.3zm1.6-.1v-.1c0-.3-.2-.6-.5-.7h-.1c-.4 0-.7.3-.7.7v.1c0 .4.3.7.7.7.2 0 .4-.1.6-.2l-.2-.3c-.1.1-.2.1-.4.1s-.4-.1-.4-.3h1zm-.7-.5c.1 0 .2.1.2.2h-.5c.1-.1.2-.2.3-.2"></path><defs><path id="a" d="M178.1 52.5h.5c0-2.3 1.9-4.1 4.1-4.1.7 0 1.3.2 1.9.5l.3-.4c-2.2-1.2-5-.4-6.2 1.9-.4.6-.6 1.4-.6 2.1"></path></defs><clipPath id="b"><use xlink:href="#a" overflow="visible"></use></clipPath><g clip-path="url(#b)"><linearGradient id="c" gradientUnits="userSpaceOnUse" x1="1765.287" y1="-2362.03" x2="1765.428" y2="-2362.03" gradientTransform="translate(-96161.352 128955.688) scale(54.574)"><stop offset="0" stop-color="#72BF44"></stop><stop offset="1" stop-color="#2F631C"></stop></linearGradient><path fill="url(#c)" d="M178.1 47.9h6.8v4.6h-6.8z"></path></g><defs><path id="d" d="M179 52.5h.5c0-1.8 1.5-3.3 3.3-3.3.5 0 1 .1 1.4.3.1-.1.2-.3.2-.4-1.9-.9-4.1-.2-5 1.7-.3.6-.4 1.2-.4 1.7"></path></defs><clipPath id="e"><use xlink:href="#d" overflow="visible"></use></clipPath><g clip-path="url(#e)"><linearGradient id="f" gradientUnits="userSpaceOnUse" x1="1755.627" y1="-2369.396" x2="1755.767" y2="-2369.396" gradientTransform="translate(-76294.086 103259.156) scale(43.559)"><stop offset="0" stop-color="#72BF44"></stop><stop offset="1" stop-color="#2F631C"></stop></linearGradient><path fill="url(#f)" d="M179 48.8h5.4v3.7H179z"></path></g><defs><path id="g" d="M179.8 52.5h.5c0-1.3 1.1-2.4 2.4-2.4.4 0 .8.1 1.1.3l.2-.4c-1.4-.7-3.2-.1-3.9 1.3-.2.4-.3.8-.3 1.2"></path></defs><clipPath id="h"><use xlink:href="#g" overflow="visible"></use></clipPath><g clip-path="url(#h)"><linearGradient id="i" gradientUnits="userSpaceOnUse" x1="1741.026" y1="-2380.572" x2="1741.166" y2="-2380.572" gradientTransform="translate(-57937.063 79516.969) scale(33.381)"><stop offset="0" stop-color="#72BF44"></stop><stop offset="1" stop-color="#2F631C"></stop></linearGradient><path fill="url(#i)" d="M179.8 49.6h4.1v2.9h-4.1z"></path></g><defs><path id="j" d="M180.7 52.5h.5c0-.9.7-1.6 1.6-1.6.3 0 .6.1.9.3l.1-.5c-1-.5-2.2-.2-2.7.8-.3.4-.4.7-.4 1"></path></defs><clipPath id="k"><use xlink:href="#j" overflow="visible"></use></clipPath><g clip-path="url(#k)"><linearGradient id="l" gradientUnits="userSpaceOnUse" x1="1716.78" y1="-2399.12" x2="1716.92" y2="-2399.12" gradientTransform="translate(-41116.094 57762.348) scale(24.055)"><stop offset="0" stop-color="#72BF44"></stop><stop offset="1" stop-color="#2F631C"></stop></linearGradient><path fill="url(#l)" d="M180.7 50.5h3v2h-3z"></path></g><defs><path id="m" d="M181.6 52.5h.5c0-.4.3-.7.7-.7.4 0 .7.3.7.7 0-.3 0-.6.1-.9-.5-.4-1.2-.4-1.6.1-.4.3-.5.5-.4.8"></path></defs><clipPath id="n"><use xlink:href="#m" overflow="visible"></use></clipPath><g clip-path="url(#n)"><linearGradient id="o" gradientUnits="userSpaceOnUse" x1="1669.54" y1="-2435.325" x2="1669.68" y2="-2435.325" gradientTransform="translate(-25828.457 37991.883) scale(15.579)"><stop offset="0" stop-color="#72BF44"></stop><stop offset="1" stop-color="#2F631C"></stop></linearGradient><path fill="url(#o)" d="M181.6 51.4h1.9v1.2h-1.9z"></path></g><path fill="#F7D377" d="M174.5 74.1H199v1.3h-24.5z"></path></svg>