<svg xmlns="http://www.w3.org/2000/svg" width="293.1" height="80" viewBox="0 0 293.1 80"><title>fleet-leasing</title><circle fill="#68CBF8" cx="107.5" cy="41.4" r="1.4"></circle><path fill="#D9F2FD" d="M107.5 19.5v55.9h71.3V19.5z"></path><path fill="#fff" d="M120.8 45.9h44.7v29.6h-44.7z"></path><path fill="#F0F0F3" d="M121.5 46.6h43.3v28.9h-43.3z"></path><path fill="#F7F7F9" d="M136 60.9h-14.5v14.5zm0-14.4h-14.5v14.4zm14.4 14.4H136v14.5zm0-14.4H136v14.4zm14.4 14.4h-14.4v14.5zm0-14.4h-14.4v14.4z"></path><path fill="#F0F0F3" d="M107.5.7h71.4v18.8h-71.4z"></path><path fill="#F7F7F9" d="M178.2 1.4h-16.9v16.9zm-17.7 0h-16.9v16.9zm-17.7 0h-17v16.9zm-17.8 0h-16.9v16.9z"></path><path fill="#9ADDFB" d="M107.5 18.8h71.4v.7h-71.4zm58 55.1h13.3v1.4h-13.3zm-58 0h13.3v1.4h-13.3z"></path><path fill="#999AAE" d="M116.4 26.5v.9h-1.1v1.8h1.1v.8h-1.1v1.9h1.2v.9h-2.2v-6.3h2.1zm4.3 6.2h-1l-.2-1h-1v1h-1l.9-6.3h1.3l1 6.3zm-2-1.8h.8l-.4-3.1-.4 3.1zm6-.3v1c.1.6-.4 1.1-.9 1.1h-.7c-.6.1-1.1-.3-1.2-.9v-1.7h1v1.3c0 .2.1.3.4.3h.2c.2 0 .4-.1.4-.3v-.9c0-.2-.1-.4-.2-.5l-1-.7c-.4-.2-.6-.7-.6-1.1v-.8c-.1-.6.3-1.1.9-1.2h.6c.6-.1 1.1.3 1.2.9v1.5h-1v-1.1c0-.2-.1-.3-.2-.4h-.2c-.2 0-.3.1-.3.3v.8c0 .2.1.4.2.5l1 .7c.3.3.5.8.4 1.2zm3.2-4.1h1l-1 4.1v2.2h-1v-2.2l-1-4.1h1l.6 2.6.4-2.6zm7 3.6v1.4c.1.6-.3 1.1-.9 1.2h-.9c-.6.1-1.1-.3-1.2-.9v-4.4c-.1-.6.3-1.1.9-1.2h.9c.6-.1 1.1.3 1.2.9v1.7h-1v-1.3c0-.2-.1-.4-.3-.4h-.2c-.2-.1-.3 0-.4.2v4.2c-.1.2 0 .3.2.4h.4c.2 0 .3-.1.3-.4v-1.4h1zm4.3 2.6h-1l-.2-1h-1v1h-1l.9-6.3h1.3l1 6.3zm-2-1.8h.8l-.4-3.1-.4 3.1zm6.1-.3v2.2h-1v-2.2c0-.2-.2-.4-.4-.4h-.4v2.6h-1v-6.3h1.6c.6-.1 1.1.3 1.2.9V29c.1.4-.2.8-.6 1 .5-.1.6.1.6.6zm-1.3-3.3h-.5v2.1h.5c.2 0 .4-.2.4-.4v-1.3c.1-.2 0-.3-.2-.4-.1-.1-.2-.1-.2 0zm6.9-.8v.9h-1.1v1.8h1.1v.9h-1.1v2.7h-1v-6.3h2.1zm2.4 6.2h-1v-6.3h1v6.3zm3.5-6.2h.9v6.3h-1l-1-4.2v4.2h-.9v-6.3h1.1l.9 3.9v-3.9zm5.3 6.2h-1l-.2-1h-1v1h-1l.9-6.3h1.3l1 6.3zm-2-1.8h.8l-.4-3.1-.4 3.1zm5.3-4.4h.9v6.3h-1l-1-4.2v4.2h-.9v-6.3h1.1l.9 3.9v-3.9zm5.1 3.6v1.4c.1.6-.3 1.1-.9 1.2h-.9c-.6.1-1.1-.3-1.2-.9v-4.4c-.1-.6.3-1.1.9-1.2h.9c.6-.1 1.1.3 1.2.9v1.7h-1v-1.3c0-.2-.1-.4-.4-.4h-.1c-.2-.1-.3 0-.4.2v4.2c-.1.2 0 .3.2.4h.4c.2 0 .4-.1.4-.4v-1.4h.9zm3.6-3.6v.9h-1.2v1.8h1.1v.8h-1.1v1.9h1.2v.9h-2.2v-6.3h2.2z"></path><path fill="#fff" d="M136 54.1h14.4v21.3H136z"></path><path fill="#B2B2C1" d="M143.6 54.8h6.2v9.4h-6.2zm-6.9 0h6.2v9.4h-6.2zm6.8 10.1h6.2v10.5h-6.2zm-6.8 0h6.2v10.5h-6.2z"></path><path fill="#E0E0E6" d="M150.4 73.9h14.4v1.4h-14.4z"></path><path fill="#A3A3B5" d="M143.5 73.9h6.1v1.4h-6.1zm-6.8 0h6.1v1.4h-6.1z"></path><path fill="#E0E0E6" d="M121.5 73.9h14.4v1.4h-14.4z"></path><path fill="#9ADDFB" d="M107.5 0h71.4v.7h-71.4z"></path><circle fill="#68CBF8" cx="121.8" cy="41.4" r="1.4"></circle><circle fill="#68CBF8" cx="164.6" cy="41.4" r="1.4"></circle><circle fill="#68CBF8" cx="150.3" cy="41.4" r="1.4"></circle><circle fill="#68CBF8" cx="136" cy="41.4" r="1.4"></circle><path fill="#9ADDFB" d="M103.5 39.3h79.4v2.2h-79.4z"></path><path fill="#CDEEFD" d="M107.5 38.2h71.4v1.1h-71.4z"></path><ellipse opacity=".1" fill="#656684" cx="180.6" cy="78.8" rx="7.6" ry="1.2"></ellipse><path fill="#fff" d="M180.6 41.9c-4.1 0-7.5 2.4-7.6 5.4v9.9c0 .3.6.6 1.3.6.7 0 1.3-.3 1.3-.6v-8.3c0-.2.1-.3.3-.3.2 0 .3.1.3.3v6c0 .7 2 1.3 4.4 1.3 2.4 0 4.4-.6 4.4-1.3v-6c0-.2.1-.3.3-.3.2 0 .3.1.3.3v8.3c0 .3.6.6 1.3.6.7 0 1.3-.3 1.3-.6v-9.9c-.1-3-3.5-5.4-7.6-5.4z"></path><path fill="#FBD8BC" d="M179.3 67v10.8c0 .3-.6.6-1.3.6-.7 0-1.3-.3-1.3-.6V67h2.6zm5.1 0v10.8c0 .3-.6.6-1.3.6-.7 0-1.3-.3-1.3-.6V67h2.6z"></path><path fill="#fff" d="M180.6 39.4c1.1 0 1.9-.9 1.9-1.9h-3.8c0 1 .8 1.9 1.9 1.9z"></path><path fill="#FBD8BC" d="M179.3 67v10.8c0 .3-.6.6-1.3.6-.7 0-1.3-.3-1.3-.6V67h2.6z"></path><path fill="#03A9F4" d="M176.1 54.9v22.6h3.8V61c0-.4.3-.6.6-.6.4 0 .6.3.6.6v16.8h3.8V54.9h-8.8z"></path><path fill="#D1D1DA" d="M185 78.2v-.6c0-.6-.9-1-1.9-1-1 0-1.8.4-1.8 1v.6h3.7z"></path><path fill="#FBD8BC" d="M186.9 57.8c-.7 0-1.3-.3-1.3-.6v2.2c0 .3.6.6 1.3.6.7 0 1.3-.3 1.3-.6v-2.2c0 .3-.5.6-1.3.6z"></path><path fill="#FACBA6" d="M179.3 39.2v2.7l1.3.7 1.3-.7v-2.7z"></path><path fill="#F0F0F3" d="M180.6 42.6l1 .9.9-1.3-.6-.6zm0 0l-1 .9-.9-1.3.6-.6z"></path><path fill="#03A9F4" d="M180.6 42.6l-.6.6.3.6h.6l.3-.6zm0 12.3l1-1-.7-10.1h-.6l-.7 10.1z"></path><path fill="#A3A3B5" d="M181.2 78.2h3.8v.6h-3.8z"></path><path fill="#D1D1DA" d="M180 78.2v-.6c0-.6-.9-1-1.9-1s-1.9.4-1.9 1v.6h3.8z"></path><path fill="#A3A3B5" d="M176.1 78.2h3.8v.6h-3.8z"></path><circle fill="#FBD8BC" cx="185" cy="35.9" r="1"></circle><circle fill="#FBD8BC" cx="180.6" cy="36.2" r="4.4"></circle><path fill="#C9A48D" d="M185 34.9v-.3c-.3-2.5-2.6-4.2-5-3.9-2 .3-3.6 1.8-3.9 3.9 0 .3 0 .5.1.8.1-.8.5-1.6 1-2.2 1.6 1.3 3.6 2 5.6 1.9l2.2-.2z"></path><path fill="#F5984D" d="M185 34.9v-.3c-.3-2.5-2.6-4.2-5-3.9-2 .3-3.6 1.8-3.9 3.9 0 .3 0 .5.1.8.1-.8.5-1.6 1-2.2 1.6 1.3 3.6 2 5.6 1.9l2.2-.2z"></path><circle fill="#FBD8BC" cx="176.1" cy="35.9" r="1"></circle><circle fill="#FBD8BC" cx="185" cy="35.9" r="1"></circle><circle fill="#FBD8BC" cx="180.6" cy="36.2" r="4.4"></circle><path fill="#C9A48D" d="M185 34.9v-.3c-.3-2.5-2.6-4.2-5-3.9-2 .3-3.6 1.8-3.9 3.9 0 .3 0 .5.1.8.1-.8.5-1.6 1-2.2 1.6 1.3 3.6 2 5.6 1.9l2.2-.2z"></path><path fill="#5C5C5C" d="M185 34.9v-.3c-.3-2.5-2.6-4.2-5-3.9-2 .3-3.6 1.8-3.9 3.9 0 .3 0 .5.1.8.1-.8.5-1.6 1-2.2 1.6 1.3 3.6 2 5.6 1.9l2.2-.2z"></path><path fill="#fff" d="M180.6 39.4c1.1 0 1.9-.9 1.9-1.9h-3.8c0 1 .8 1.9 1.9 1.9z"></path><circle fill="#FBD8BC" cx="176.1" cy="35.9" r="1"></circle><path fill="#FBD8BC" d="M174.3 57.8c-.7 0-1.3-.3-1.3-.6v2.2c0 .3.6.6 1.3.6.7 0 1.3-.3 1.3-.6v-2.2c-.1.3-.7.6-1.3.6z"></path></svg>