<svg xmlns="http://www.w3.org/2000/svg" width="293.1" height="80" viewBox="0 0 293.1 80"><title>fleet-leasing</title><ellipse opacity=".1" fill="#656684" cx="146" cy="68.8" rx="59.9" ry="3.1"></ellipse><ellipse opacity=".1" fill="#656684" cx="146" cy="73.7" rx="14.1" ry="1.3"></ellipse><path fill="#FCE5D2" d="M99.9 54.7h89.7v14.5H99.9V54.7z"></path><path fill="#FBD8BC" d="M99.9 54.7h89.7v2.4H99.9v-2.4z"></path><path fill="#ADAEF4" d="M101.3 54.7h1.1v16.7h-1.1V54.7zm14.1 0h1.1v16.7h-1.1V54.7zm14.2 0h1.1v16.7h-1.1V54.7zm14.2 0h1.1v16.7h-1.1V54.7zm14.4 0h1.1v16.7h-1.1V54.7zm14.3 0h1.1v16.7h-1.1V54.7zm14.3 0h1.1v16.7h-1.1V54.7zm-28.8 0h1.1v16.7H158V54.7z"></path><path fill="#BABBF6" d="M90.5 7.5h109.4v47.3H90.5V7.5z"></path><path fill="#FACBA6" d="M90.5 51.1h109.4v3.7H90.5v-3.7zm0-22.8h109.4V32H90.5v-3.7z"></path><path fill="#F9C092" d="M90.5 30.1h109.4V32H90.5v-1.9z"></path><path fill="#FACBA6" d="M90.5 5.5h109.4v3.7H90.5V5.5z"></path><path fill="#C1C2F7" d="M163 9.2v19.1h-12l12-19.1zm-12 0v19.1h-12.1L151 9.2zm-12.1 0v19.1h-12.1l12.1-19.1zm-12.1 0v19.1h-12.1l12.1-19.1zm-12 0v19.1h-12.1l12.1-19.1zm-12.1 0v19.1H90.5l12.2-19.1zM163 32v19.1h-12L163 32zm12.3-22.8v19.1h-12.1l12.1-19.1zm0 22.8v19.1h-12.1L175.3 32zm12.4-22.8v19.1h-12.1l12.1-19.1zm0 22.8v19.1h-12.1L187.7 32zm12.2-22.8v19.1h-12.1l12.1-19.1zm0 22.8v19.1h-12.1L199.9 32zM151 32v19.1h-12.1L151 32zm-12.1 0v19.1h-12.1L138.9 32zm-12.1 0v19.1h-12.1L126.8 32zm-12 0v19.1h-12.1L114.8 32zm-12.1 0v19.1H90.5L102.7 32z"></path><path fill="#F9C092" d="M90.5 7.4h109.4v1.8H90.5V7.4zm97.8 2.1l-.7-1.3c.5-.8.7-1.7.7-2.6 0-3-2.4-5.3-5.6-5.3h-3c-.4 0-.7.1-1.1.3-.4-.2-.7-.3-1.2-.3h-5.3c-.3 0-.6.1-.9.2-.3-.1-.6-.2-.9-.2h-2.6c-.5 0-1 .1-1.5.4-.5-.3-.9-.4-1.5-.4h-2.6c-.6 0-1.3.2-1.8.6-1-.6-2.1-.8-3.3-.8-1.4 0-2.8.4-4 1.2l-.2-.2c-1.2-.6-2.5-1-3.9-1-2.2-.1-4.3 1-5.5 2.9 0-.5-.1-.9-.4-1.4-.5-.8-1.4-1.4-2.4-1.4h-2.5c-.3 0-.6.1-.9.2-.3-.1-.6-.2-.9-.2h-2c-.6 0-1.1.2-1.6.5-.9-.4-1.9-.6-2.9-.6-1.4 0-2.7.4-3.9 1.1-.6-.6-1.3-.9-2.1-.9h-2c-.4 0-.7.1-1.1.3-.4-.2-.7-.3-1.1-.3h-2c-.4 0-.6.1-1 .2-.4-.1-.6-.2-1-.2h-1.9c-.8 0-1.7.4-2.2 1-1.2-.7-2.6-1.1-4-1.1-3.6-.1-6.6 2.8-6.7 6.4v.5c-.1 3.6 2.7 6.6 6.4 6.8h.5c.3 0 .6 0 .9-.1 1 1 2.6 1.1 3.7.2l.2-.1.1-.1.8-.8c1 .6 2.2.9 3.4.9 1.2 0 2.4-.3 3.4-.9.5.5 1.2.7 1.8.7h1.9c.8 0 1.6-.4 2.1-1 1.1.7 2.5 1.2 3.9 1.1 1 0 2-.2 2.9-.6.5.3 1 .5 1.6.5h2c.3 0 .6-.1.9-.2.3.1.6.2.9.2h2.7c1 0 2-.6 2.5-1.5.2-.3.3-.6.3-1 1.2 1.8 3.2 2.8 5.3 2.7 1.3 0 2.7-.4 3.8-1l.2-.2c1.2.8 2.6 1.2 4 1.2 1.9 0 3.9-.7 5.2-2.2v.1c.4 1.2 1.5 2 2.8 2h2.6c.9 0 1.8-.5 2.3-1.2.6.7 1.4 1.2 2.3 1.2h5.3c.4 0 .7-.1 1.1-.2.4.2.7.2 1.1.2h2c.3 0 .6 0 .9-.1.3.1.6.2.9.1h2.5c1.6 0 2.8-1.2 2.9-2.7 0-.5-.1-1-.4-1.5l-.2-.1z"></path><path fill="#FACBA6" d="M182.7.5h-3c-.4 0-.7.1-1.1.3-.4-.2-.7-.3-1.1-.3h-5.3c-.3 0-.6.1-.9.2-.3-.1-.6-.2-.9-.2h-2.6c-.5 0-1 .1-1.5.4-.5-.3-.9-.4-1.5-.4h-2.6c-.6 0-1.3.2-1.8.6-1-.6-2.2-.8-3.3-.8-1.4 0-2.8.4-4 1.2l-.1-.2c-1.1-.6-2.5-1-3.8-1-2.2-.1-4.3 1-5.5 2.9 0-.5-.1-.9-.4-1.4-.5-.8-1.4-1.4-2.4-1.4h-2.5c-.3 0-.6.1-.9.2-.3-.1-.6-.2-.9-.2h-2c-.6 0-1.1.2-1.6.5-.9-.4-1.9-.6-2.9-.6-1.4 0-2.7.4-3.9 1.1-.6-.6-1.3-.9-2.1-.9h-2c-.4 0-.7.1-1.1.3-.4-.2-.7-.3-1.1-.3h-2c-.4 0-.6.1-1 .2-.4-.1-.6-.2-1-.2H114c-.8 0-1.7.4-2.2 1-1.2-.8-2.6-1.2-4-1.2-3.6-.1-6.6 2.8-6.7 6.4v.9h87.3c.2-.6.4-1.1.4-1.8-.5-3.1-2.9-5.3-6.1-5.3z"></path><path fill="#fff" d="M111.8 10.2c.1.1.1.2 0 .2l-1.4 1.4c-.1.1-.2.1-.2 0l-.8-1c-.6.3-1.3.4-1.9.4-2.1.1-4-1.6-4.1-3.7V7c-.2-2.1 1.5-4.1 3.6-4.1h.5c2.1-.1 4 1.6 4.1 3.7v.5c0 .8-.2 1.7-.6 2.4l.8.7zM109 7.8c.1-.3.2-.6.2-.8.1-.9-.6-1.8-1.5-1.8-.9-.1-1.8.6-1.8 1.5v.5c-.1.9.6 1.8 1.5 1.9h.6l-.4-.6c-.1-.1-.1-.2 0-.2l.7-.8c.1-.1.1-.1.2 0l.5.3zM119.6 3c.1 0 .2.1.2.2V8c0 2-1.1 3.1-3.2 3.1s-3.1-1.1-3.2-3.1V3.2c0-.1.1-.2.2-.2h2c.1 0 .2.1.2.2v5.1c-.1.5.3.8.7.9s.8-.3.9-.7V3.2c0-.1.1-.2.2-.2h2zm4.4 0c.1 0 .2.1.2.2v7.6c0 .1-.1.2-.2.2h-2c-.1 0-.2-.1-.2-.2V3.2c0-.1.1-.2.2-.2h2zm8.5 7.3c0 .1 0 .2-.1.2-.7.5-1.6.6-2.4.6-2.1.1-3.9-1.6-4-3.7v-.5c-.3-2.1 1.3-4 3.4-4.1h.5c.8 0 1.7.3 2.4.6.1 0 .2.1.1.2l-.7 1.6c0 .1-.1.1-.2.1-.4-.2-.8-.4-1.4-.3-.9 0-1.8.7-1.8 1.7v.2c-.1.9.6 1.8 1.6 1.9h.2c.5 0 .9-.1 1.4-.4.1 0 .2 0 .2.1l.8 1.8zm8.5.6c.1.1 0 .1 0 0l-2.8.1-.3-.1-1.3-2.9v2.9c0 .1-.1.2-.2.2h-2c-.1 0-.2-.1-.2-.2V3.2c0-.1.1-.2.2-.2h2c.1 0 .2.1.2.2v2.6l1.4-2.6c.1-.1.2-.2.3-.2h2.6c.1 0 .1.1.1.2l-2.3 3.7 2.3 4zm10.6-.6c0 .1 0 .2-.1.2-.7.5-1.6.6-2.4.6-2.1.1-4-1.6-4.1-3.7v-.6c-.2-2.1 1.4-4 3.5-4.1h.5c.8 0 1.8.2 2.5.6.1 0 .2.1.1.2l-.7 1.6c0 .1-.1.1-.2.1-.4-.2-.8-.4-1.3-.3-.9 0-1.8.7-1.8 1.7v.2c-.1.9.6 1.8 1.6 1.9h.2c.5 0 .9-.1 1.3-.4.1 0 .2 0 .2.1l.7 1.9zm5.5.9c-2.1.1-4-1.6-4.1-3.7V7c.1-2.2 1.8-4.1 4.1-4.1s4.1 1.8 4.1 4.1c.2 2.1-1.5 4-3.6 4.1-.3.1-.4.1-.5.1zm0-6c-.9 0-1.7.7-1.6 1.7v.2c-.2.8.5 1.7 1.3 1.8.8.2 1.7-.5 1.8-1.3V7c.1-.9-.6-1.8-1.4-1.8h-.1zM170.2 3c.1.1.1.1.1.2l-2.7 7.6c0 .1-.1.2-.2.2h-2.6c-.1 0-.2-.1-.2-.2L162 3.2c0-.1 0-.1.1-.2h2.7c.1 0 .2.1.2.2l1.2 4.8 1.2-4.8c0-.1.1-.2.2-.2h2.6zm7.2 5.9c.1 0 .2.1.2.2v1.8c0 .1-.1.2-.2.2h-5.3c-.1 0-.2-.1-.2-.2V3.2c0-.1 0-.2.1-.2h5.3c.1 0 .2.1.2.2V5c0 .1-.1.2-.2.2h-3v.9h2.5c.1 0 .2.1.2.1l-.2 1.7c0 .1-.1.2-.2.2h-2.2v1l3-.2zm8.6 1.9c.1.1 0 .2-.1.2h-2.5c-.1 0-.2-.1-.3-.2l-1.2-2.5h-.2v2.6c0 .1-.1.2-.2.2h-2c-.1 0-.2-.1-.2-.2V3.2c0-.1.1-.2.2-.2h3c1.8 0 2.9 1 2.9 2.6 0 .9-.6 1.8-1.4 2.2l2 3zm-3.5-4.4c.4 0 .6-.2.6-.6s-.2-.6-.6-.6h-.8v1.2h.8z"></path><path fill="#CACAF8" d="M154.9 64.2h-.3l-1.4-5.7-.1-.5c-.1-.5-.6-.7-1-.7h-12.3c-.5 0-.8.4-1 .7l-.1.5-1.4 5.7h-.3c-.6 0-1.2.6-1.2 1.2v4.9c0 .6.6 1.2 1.2 1.2h.8v2.4h2.4v-2.4H152v2.4h2.4v-2.4h.4c.6 0 1.2-.6 1.2-1.2v-4.9c.1-.6-.4-1.2-1.1-1.2z"></path><ellipse fill="#CACAF8" cx="156" cy="63" rx="1" ry=".8"></ellipse><ellipse fill="#CACAF8" cx="136" cy="63" rx="1" ry=".8"></ellipse><ellipse opacity=".1" fill="#656684" cx="169.3" cy="78.9" rx="7" ry="1.1"></ellipse><path fill="#fff" d="M169.3 44.9c-3.8 0-6.9 2.2-7 5V59c0 .3.6.6 1.2.6s1.2-.3 1.2-.6v-7.6c0-.2.1-.3.3-.3.2 0 .3.1.3.3v5.5c0 .6 1.8 1.2 4.1 1.2s4.1-.6 4.1-1.2v-5.5c0-.2.1-.3.3-.3s.3.1.3.3V59c0 .3.6.6 1.2.6s1.2-.3 1.2-.6v-9c-.4-2.9-3.4-5.1-7.2-5.1z"></path><path fill="#FBD8BC" d="M168.1 68v10c0 .3-.6.6-1.2.6s-1.2-.3-1.2-.6V68h2.4zm4.7 0v10c0 .3-.6.6-1.2.6s-1.2-.3-1.2-.6V68h2.4z"></path><path fill="#fff" d="M169.3 42.6c1 0 1.8-.8 1.8-1.8h-3.5c0 1 .7 1.8 1.7 1.8z"></path><path fill="#FBD8BC" d="M168.1 68v10c0 .3-.6.6-1.2.6s-1.2-.3-1.2-.6V68h2.4z"></path><path fill="#656684" d="M165.2 56.9v20.8h3.5V62.5c0-.4.2-.6.6-.6.4 0 .6.2.6.6v15.7h3.5V56.9h-8.2z"></path><path fill="#D1D1DA" d="M173.4 78.2v-.6c0-.5-.7-.9-1.8-.9-1 0-1.8.4-1.8.9v.6h3.6z"></path><path fill="#FBD8BC" d="M175.1 59.5c-.6 0-1.2-.3-1.2-.6v2c0 .3.6.6 1.2.6s1.2-.3 1.2-.6v-2c0 .4-.5.6-1.2.6z"></path><path fill="#FACBA6" d="M168.1 42.4v2.5l1.2.6 1.2-.6v-2.5h-2.4z"></path><path fill="#F0F0F3" d="M169.3 45.4l.9.9.8-1.2-.6-.6-1.1.9zm0 0l-.8.9-.8-1.2.6-.6 1 .9z"></path><path fill="#F7AB6E" d="M169.3 45.4l-.6.6.3.6h.6l.3-.6-.6-.6zm0 11.5l.9-.9-.6-9.4h-.6l-.6 9.4.9.9z"></path><path fill="#A3A3B5" d="M169.9 78.2h3.5v.6h-3.5v-.6z"></path><path fill="#D1D1DA" d="M168.8 78.2v-.6c0-.5-.7-.9-1.8-.9-1 0-1.8.4-1.8.9v.6h3.6z"></path><path fill="#A3A3B5" d="M165.2 78.2h3.5v.6h-3.5v-.6z"></path><circle fill="#FBD8BC" cx="173.4" cy="39.4" r=".8"></circle><circle fill="#FBD8BC" cx="169.3" cy="39.6" r="4.1"></circle><path fill="#C9A48D" d="M173.4 38.4v-.3c-.2-2.3-2.1-4-4.3-3.9-2 .1-3.7 1.8-3.9 3.9 0 .3 0 .5.1.7.1-.7.5-1.4.9-1.9 1.5 1.2 3.3 1.8 5.2 1.8.6 0 1.2-.1 2-.3-.1.2 0 .4 0 .5-.1-.2 0-.3 0-.5z"></path><path fill="#F5984D" d="M173.4 38.4v-.3c-.2-2.3-2.1-4-4.3-3.9-2 .1-3.7 1.8-3.9 3.9 0 .3 0 .5.1.7.1-.7.5-1.4.9-1.9 1.5 1.2 3.3 1.8 5.2 1.8.6 0 1.2-.1 2-.3-.1.2 0 .4 0 .5-.1-.2 0-.3 0-.5z"></path><circle fill="#FBD8BC" cx="165.2" cy="39.4" r=".8"></circle><circle fill="#FBD8BC" cx="173.4" cy="39.4" r=".8"></circle><circle fill="#FBD8BC" cx="169.3" cy="39.6" r="4.1"></circle><path fill="#C9A48D" d="M173.4 38.4v-.3c-.2-2.3-2.1-4-4.3-3.9-2 .1-3.7 1.8-3.9 3.9 0 .3 0 .5.1.7.1-.7.5-1.4.9-1.9 1.5 1.2 3.3 1.8 5.2 1.8.6 0 1.2-.1 2-.3-.1.2 0 .4 0 .5-.1-.2 0-.3 0-.5z"></path><path fill="#5C5C5C" d="M173.4 38.4v-.3c-.2-2.3-2.1-4-4.3-3.9-2 .1-3.7 1.8-3.9 3.9 0 .3 0 .5.1.7.1-.7.5-1.4.9-1.9 1.5 1.2 3.3 1.8 5.2 1.8.6 0 1.2-.1 2-.3-.1.2 0 .4 0 .5-.1-.2 0-.3 0-.5z"></path><path fill="#fff" d="M169.3 42.6c1 0 1.8-.8 1.8-1.8h-3.5c0 1 .7 1.8 1.7 1.8z"></path><circle fill="#FBD8BC" cx="165.2" cy="39.4" r=".8"></circle><path fill="#FBD8BC" d="M163.4 59.5c-.6 0-1.2-.3-1.2-.6v2c0 .3.6.6 1.2.6s1.2-.3 1.2-.6v-2c0 .4-.5.6-1.2.6z"></path></svg>