<svg xmlns="http://www.w3.org/2000/svg" width="293.1" height="80" viewBox="0 0 293.1 80"><title>fleet-leasing</title><path fill="#A5D7A7" d="M209.7 68.8h-.8l-1.1-3c-.1-.5-.6-.9-1.1-.9h-8.3c0 .1-.2.2-.3.2l-2.1 3.7h-4.1c-.6 0-1 .5-.9 1.1v3c0 .5.4.9.9.9h2v.2h.4c.7.8 1.9.9 2.6.2.4-.3.6-.8.6-1.3h7v.2h.4c.7.8 1.9.9 2.6.2.4-.3.6-.8.6-1.3h1.5c.5 0 .9-.4.9-.9v-1.3c.1-.6-.3-1-.8-1zm-112.8 0h-.8l-1.1-3c-.1-.5-.6-.9-1.1-.9h-8.3c0 .1-.2.2-.3.2l-2.1 3.6h-4.1c-.6 0-1 .5-.9 1.1v3c0 .5.4.9.9.9H81v.2h.4c.7.8 1.9.9 2.6.2.4-.3.6-.8.6-1.3h6.9v.2h.5c.7.8 1.9.9 2.6.2.4-.3.6-.8.6-1.3h1.6c.5 0 .9-.4.9-.9v-1.2c.2-.6-.2-1-.8-1z"></path><path fill="#B2B2C1" d="M100.8 77.3v1.1H76.5c-.3 0-.5-.2-.5-.5s.2-.5.5-.5h24.3m1.6-1.6H76.5c-1.2 0-2.1.9-2.1 2.1s.9 2.1 2.1 2.1h25.9v-4.2z"></path><path fill="#94CF96" d="M76.4 77c-.5 0-.9.4-.9.9s.4.9.9.9.9-.4.9-.9-.4-.9-.9-.9zm0 1.4c-.3 0-.5-.2-.5-.5s.2-.5.5-.5.5.2.5.5c.1.3-.2.5-.5.5zm4.2-1.4c-.5 0-.9.4-.9.9s.4.9.9.9.9-.4.9-.9-.4-.9-.9-.9zm0 1.4c-.3 0-.5-.2-.5-.5s.2-.5.5-.5.5.2.5.5c.1.3-.2.5-.5.5zm4.3-1.4c-.5 0-.9.4-.9.9s.4.9.9.9.9-.4.9-.9c-.1-.5-.5-.9-.9-.9zm0 1.4c-.3 0-.5-.2-.5-.5s.2-.5.5-.5.5.2.5.5-.2.5-.5.5zm4.2-1.4c-.5 0-.9.4-.9.9s.4.9.9.9.9-.4.9-.9c-.1-.5-.5-.9-.9-.9zm0 1.4c-.3 0-.5-.2-.5-.5s.2-.5.5-.5.5.2.5.5-.2.5-.5.5zm4.2-1.4c-.5 0-.9.4-.9.9s.4.9.9.9.9-.4.9-.9c-.1-.5-.4-.9-.9-.9zm0 1.4c-.3 0-.5-.2-.5-.5s.2-.5.5-.5.5.2.5.5-.2.5-.5.5z"></path><path fill="#B2B2C1" d="M216 77.3c.3 0 .5.2.5.5s-.2.5-.5.5h-24.2v-1.1H216m.1-1.4h-25.9V80h25.9c1.2 0 2.1-.9 2.1-2.1s-1-2.1-2.1-2.1z"></path><path fill="#DDF0DE" d="M169.8 16.8h16.9V0z"></path><path fill="#D0EAD1" d="M169.8 16.8h5.3v-5.3z"></path><path fill="#DDF0DE" d="M156.5 16.8h16.9V0z"></path><path fill="#C9E7CA" d="M102.1 18.9h84.3V80h-84.3z"></path><path fill="#94CF96" d="M216.2 77c-.5 0-.9.4-.9.9s.4.9.9.9.9-.4.9-.9c-.1-.5-.5-.9-.9-.9zm0 1.4c-.3 0-.5-.2-.5-.5s.2-.5.5-.5.5.2.5.5-.2.5-.5.5zM212 77c-.5 0-.9.4-.9.9s.4.9.9.9.9-.4.9-.9c-.1-.5-.5-.9-.9-.9zm0 1.4c-.3 0-.5-.2-.5-.5s.2-.5.5-.5.5.2.5.5-.2.5-.5.5zm-4.3-1.4c-.5 0-.9.4-.9.9s.4.9.9.9.9-.4.9-.9-.4-.9-.9-.9zm0 1.4c-.3 0-.5-.2-.5-.5s.2-.5.5-.5.5.2.5.5c.1.3-.2.5-.5.5zm-4.2-1.4c-.5 0-.9.4-.9.9s.4.9.9.9.9-.4.9-.9-.4-.9-.9-.9zm0 1.4c-.3 0-.5-.2-.5-.5s.2-.5.5-.5.5.2.5.5c.1.3-.2.5-.5.5zm-4.2-1.4c-.5 0-.9.4-.9.9s.4.9.9.9.9-.4.9-.9-.4-.9-.9-.9zm0 1.4c-.3 0-.5-.2-.5-.5s.2-.5.5-.5.5.2.5.5c.1.3-.2.5-.5.5zm-4.2-1.4c-.5 0-.9.4-.9.9s.4.9.9.9.9-.4.9-.9-.4-.9-.9-.9zm0 1.4c-.3 0-.5-.2-.5-.5s.2-.5.5-.5.5.2.5.5c.1.3-.2.5-.5.5z"></path><path fill="#F7F7F9" d="M123.1 37.9h21.1V47h-21.1zm21.1 0h21.1V47h-21.1zm21 0h21.1V47h-21.1z"></path><path fill="#F0F0F3" d="M123.1 47v-9.1h21.1zm21.1 0v-9.1h21zm21 0v-9.1h21.1z"></path><path fill="#94CF96" d="M100.8 16.8h87v2.1h-87z"></path><path fill="#A5D7A7" d="M102.1 18.9h84.3v.7h-84.3zm0 14.1h84.3v.7h-84.3zm0 14h84.3v.7h-84.3zm0 14.1h84.3v.7h-84.3zm0 14h84.3v.7h-84.3z"></path><path fill="#F7F7F9" d="M123.1 23.9h21.1V33h-21.1zm21.1 0h21.1V33h-21.1zm21 0h21.1V33h-21.1z"></path><path fill="#F0F0F3" d="M123.1 33v-9.1h21.1zm21.1 0v-9.1h21zm21 0v-9.1h21.1z"></path><path fill="#F7F7F9" d="M123.1 51.9h21.1V61h-21.1zm21.1 0h21.1V61h-21.1zm21 0h21.1V61h-21.1zM123.1 66h21.1v9.1h-21.1zm21.1 0h21.1v9.1h-21.1zm21 0h21.1v9.1h-21.1z"></path><path fill="#F0F0F3" d="M123.1 61.1v-9.2h21.1zm21.1 0v-9.2h21zm21 0v-9.2h21.1zm-42.1 14V66h21.1z"></path><path fill="#F7F7F9" d="M102.1 37.9h21.1V47h-21.1z"></path><path fill="#F0F0F3" d="M102.1 47v-9.1h21z"></path><path fill="#F7F7F9" d="M102.1 23.9h21.1V33h-21.1z"></path><path fill="#F0F0F3" d="M102.1 33v-9.1h21z"></path><path fill="#F7F7F9" d="M102.1 51.9h21.1V61h-21.1zm0 14.1h21.1v9.1h-21.1z"></path><path fill="#F0F0F3" d="M102.1 61.1v-9.2h21zm0 14V66h21zm42.1 0V66h21zm21 0V66h21.1z"></path><path fill="#C9E7CA" d="M113.7 7.4h6.6v9.5h-6.6z"></path><path fill="#DDF0DE" d="M109.2 4.2h6.6v12.6h-6.6z"></path><path fill="#B7DFB9" d="M115.8 7.4h1.1v9.5h-1.1z"></path><path fill="#747590" d="M186.3 47v33h5.3V52.2c0-2.9-2.4-5.2-5.3-5.2zm-89.5 5.2V80h5.2V47c-2.9 0-5.2 2.4-5.2 5.2z"></path></svg>